<?xml version="1.0" encoding="utf-8"?>
<!-- Generator: Adobe Illustrator 24.0.1, SVG Export Plug-In . SVG Version: 6.00 Build 0)  -->
<svg version="1.1" id="Layer_1" xmlns="http://www.w3.org/2000/svg" xmlns:xlink="http://www.w3.org/1999/xlink" x="0px" y="0px"
	 viewBox="0 0 72 72" style="enable-background:new 0 0 72 72;" xml:space="preserve">
<style type="text/css">
	.st0{fill:#FFFFFF;}
	.st1{fill:url(#SVGID_1_);}
	.st2{opacity:0.48;fill:url(#SVGID_2_);}
	.st3{fill:url(#SVGID_3_);}
	.st4{fill:url(#SVGID_4_);}
	.st5{opacity:0.48;fill:url(#SVGID_5_);}
	.st6{fill:url(#SVGID_6_);}
	.st7{opacity:0.48;fill:url(#SVGID_7_);}
	.st8{fill:url(#SVGID_8_);}
	.st9{fill:url(#SVGID_9_);}
	.st10{opacity:0.48;fill:url(#SVGID_10_);}
	.st11{fill:url(#SVGID_11_);}
	.st12{fill:url(#SVGID_12_);}
	.st13{fill:url(#SVGID_13_);}
	.st14{fill:url(#SVGID_14_);}
	.st15{fill:url(#SVGID_15_);}
	.st16{fill:url(#SVGID_16_);}
	.st17{opacity:0.68;fill:url(#SVGID_17_);}
	.st18{fill:url(#SVGID_18_);}
	.st19{opacity:0.68;fill:url(#SVGID_19_);}
	.st20{fill:url(#SVGID_20_);}
	.st21{opacity:0.68;fill:url(#SVGID_21_);}
	.st22{fill:url(#SVGID_22_);}
	.st23{fill:url(#SVGID_23_);}
	.st24{fill:url(#SVGID_24_);}
</style>
<g>
	<circle class="st0" cx="36" cy="36" r="36"/>
	<g>
		<g>
			<g>
				<linearGradient id="SVGID_1_" gradientUnits="userSpaceOnUse" x1="14.1124" y1="17.3978" x2="43.5447" y2="6.8997">
					<stop  offset="0" style="stop-color:#076BFF"/>
					<stop  offset="1" style="stop-color:#DD65F5"/>
				</linearGradient>
				<path class="st1" d="M48.8,9.8c-1.1-0.5-2.5-1.1-3.6-1.5c-2.1-0.7-3.3-1-5.6-1.4c0.1,0,0,0,0,0c-0.1,0-0.1,0-0.2,0
					c-0.1,0-0.1,0-0.2,0c-0.2,0-0.3,0-0.5-0.1c-2.1-0.2-2.3-0.2-4.1-0.2c-0.5,0-1.2,0.1-1.6,0.1c-4.2,0.5-7.3,1.6-9.2,2.4l-0.5,0.2
					c-0.8,0.4-0.8,0.4-1.2,0.6c-0.8,0.5-0.9,0.5-1.3,0.7c-2.3,1.5-3.8,2.6-5.7,4.5c-0.6,0.7-1.4,1.6-2,2.3
					c3.6-3.8,20.2-10.4,32.2-8.8C47,9.1,47.6,9.3,48.8,9.8z"/>
				<linearGradient id="SVGID_2_" gradientUnits="userSpaceOnUse" x1="36.6465" y1="9.3202" x2="16.6867" y2="15.5891">
					<stop  offset="2.383810e-03" style="stop-color:#FFFFFF;stop-opacity:0"/>
					<stop  offset="0.997" style="stop-color:#7800B1"/>
				</linearGradient>
				<path class="st2" d="M48.8,9.8c-1.1-0.5-2.5-1.1-3.6-1.5c-2.1-0.7-3.3-1-5.6-1.4c0.1,0,0,0,0,0c-0.1,0-0.1,0-0.2,0
					c-0.1,0-0.1,0-0.2,0c-0.2,0-0.3,0-0.5-0.1c-2.1-0.2-2.3-0.2-4.1-0.2c-0.5,0-1.2,0.1-1.6,0.1c-4.2,0.5-7.3,1.6-9.2,2.4l-0.5,0.2
					c-0.8,0.4-0.8,0.4-1.2,0.6c-0.8,0.5-0.9,0.5-1.3,0.7c-2.3,1.5-3.8,2.6-5.7,4.5c-0.6,0.7-1.4,1.6-2,2.3
					c3.6-3.8,20.2-10.4,32.2-8.8C47,9.1,47.6,9.3,48.8,9.8z"/>
			</g>
			<g>
				<linearGradient id="SVGID_3_" gradientUnits="userSpaceOnUse" x1="5.1731" y1="63.4704" x2="68.6295" y2="44.5958">
					<stop  offset="0" style="stop-color:#4037FF"/>
					<stop  offset="1" style="stop-color:#FF87FF"/>
				</linearGradient>
				<path class="st3" d="M59.7,41.8c-14-6-46,10-45.4,12.6c0,0.1,0.1,0.2,0.1,0.2l1.2,1.3c2.1,1.9,2.2,2,3.6,3
					c2.4,1.5,2.5,1.6,4.1,2.4l1.1,0.5c-2.2-1.5,8.8-7.1,18-9.2c3.5-0.8,9.9-1.9,12.5,0.3c2.9,3.5-7.2,9-8.6,8.6
					c-0.1,0-0.1-0.1-0.2-0.1c0-0.2,0-0.3,0.5-0.7c0.8-0.8-0.3-0.9-0.8-0.9c-3.1,0-10,3.2-8.9,4.1c0.1,0.1,0.4,0.1,0.9,0.1
					c0.5,0,1.2-0.1,1.7-0.2c1.3-0.2,1.3-0.2,2-0.3c1.1-0.2,1.1-0.2,1.6-0.4c0.9-0.3,0.9-0.3,1.4-0.4c0.8-0.3,0.8-0.3,1.2-0.4
					c0.8-0.3,0.8-0.3,1.2-0.5c0.8-0.3,0.8-0.3,1.1-0.5c0.8-0.4,0.8-0.4,1.2-0.6c0.8-0.5,0.9-0.5,1.3-0.7c1.9-1.2,3.4-2.3,5.5-4.3
					c1.2-1.2,2.1-2.2,3.4-4.1c0.6-1,1.4-2.3,2-3.3C61.9,47,63.4,43.7,59.7,41.8z"/>
				<linearGradient id="SVGID_4_" gradientUnits="userSpaceOnUse" x1="55.7264" y1="42.0526" x2="3.2596" y2="62.6868">
					<stop  offset="0" style="stop-color:#FF89FF"/>
					<stop  offset="0.9952" style="stop-color:#6091FF"/>
				</linearGradient>
				<path class="st4" d="M59.7,41.8c-7.5-3.2-20.2-0.1-30.2,3.9l0,0c-1.2,0.5-4.7,1.6-2.1-0.2s2-3.1-1.4-1.4
					c-3.5,1.7-13.8,7.8-11.5,10.4l1.2,1.3c1.8,1.6,2.1,1.9,3,2.6c4.4-4,28.7-15.1,40-10.2c0.9,0.5,1.5,1,1.8,1.6
					c0.3-0.5,0.6-1.1,0.9-1.5C61.9,47,63.4,43.7,59.7,41.8z"/>
				<linearGradient id="SVGID_5_" gradientUnits="userSpaceOnUse" x1="87.9788" y1="31.0118" x2="36.6502" y2="52.8755">
					<stop  offset="2.383810e-03" style="stop-color:#FFFFFF;stop-opacity:0"/>
					<stop  offset="0.3761" style="stop-color:#C694DE;stop-opacity:0.3758"/>
					<stop  offset="0.6788" style="stop-color:#9C44C6;stop-opacity:0.68"/>
					<stop  offset="0.892" style="stop-color:#8213B7;stop-opacity:0.8944"/>
					<stop  offset="0.997" style="stop-color:#7800B1"/>
				</linearGradient>
				<path class="st5" d="M61.1,48.7c0.1-0.1,0.1-0.3,0.2-0.4c0.6-1.3,2.1-4.6-1.7-6.5c-0.2-0.1-0.5-0.2-0.7-0.3
					c-0.1,0-0.2-0.1-0.2-0.1c-0.2-0.1-0.3-0.1-0.5-0.2c-0.1,0-0.2-0.1-0.3-0.1c-0.2,0-0.3-0.1-0.5-0.1c-0.1,0-0.2-0.1-0.3-0.1
					c-0.1,0-0.3-0.1-0.4-0.1c-0.1,0-0.2,0-0.3-0.1c-0.1,0-0.3-0.1-0.4-0.1c-0.1,0-0.2,0-0.4-0.1c-0.2,0-0.3,0-0.5-0.1
					c-0.1,0-0.2,0-0.4,0c-0.2,0-0.3,0-0.5,0c-0.1,0-0.3,0-0.4,0c-0.2,0-0.3,0-0.5,0c-0.1,0-0.3,0-0.4,0c-0.2,0-0.3,0-0.5,0
					c-0.1,0-0.3,0-0.4,0c-0.2,0-0.3,0-0.5,0c-0.1,0-0.3,0-0.4,0c-0.2,0-0.4,0-0.5,0c-0.1,0-0.3,0-0.4,0c-0.2,0-0.4,0-0.6,0
					c-0.1,0-0.2,0-0.4,0c-0.2,0-0.4,0-0.7,0.1c-0.1,0-0.2,0-0.3,0c-0.6,0.1-1.3,0.1-1.9,0.2c-0.1,0-0.2,0-0.3,0
					c-0.2,0-0.5,0.1-0.7,0.1c-0.1,0-0.2,0-0.4,0.1c-0.2,0-0.4,0.1-0.6,0.1c-0.1,0-0.3,0-0.4,0.1c-0.2,0-0.4,0.1-0.6,0.1
					c-0.1,0-0.3,0.1-0.4,0.1c-0.2,0-0.4,0.1-0.6,0.1c-0.1,0-0.3,0.1-0.4,0.1c-0.2,0-0.4,0.1-0.6,0.1c-0.1,0-0.3,0.1-0.4,0.1
					c-0.2,0-0.4,0.1-0.6,0.1c-0.1,0-0.3,0.1-0.4,0.1c-0.2,0.1-0.4,0.1-0.6,0.2c-0.1,0-0.3,0.1-0.4,0.1c-0.2,0.1-0.4,0.1-0.6,0.2
					c-0.1,0-0.3,0.1-0.4,0.1c-0.2,0.1-0.4,0.1-0.6,0.2c-0.1,0-0.2,0.1-0.4,0.1c-0.2,0.1-0.4,0.1-0.7,0.2c-0.1,0-0.2,0.1-0.3,0.1
					c-0.2,0.1-0.5,0.2-0.7,0.2c-0.1,0-0.2,0.1-0.3,0.1c-0.3,0.1-0.6,0.2-0.9,0.3c0,0-0.1,0-0.1,0c-0.7,0.2-1.3,0.4-2,0.7
					c0,0-0.1,0-0.1,0c-0.3,0.1-0.6,0.2-0.8,0.3c-0.1,0-0.1,0.1-0.2,0.1c-0.2,0.1-0.5,0.2-0.7,0.3c-0.1,0-0.2,0.1-0.3,0.1
					c-0.2,0.1-0.4,0.2-0.7,0.3c0,0-0.1,0-0.1,0l0,0c-1.2,0.5-4.7,1.6-2.1-0.2c2.6-1.8,2-3.1-1.4-1.4c-3.5,1.7-13.8,7.8-11.5,10.4
					l1.2,1.3c0.1,0.1,0.2,0.2,0.3,0.3c0,0,0.1,0.1,0.1,0.1c0.1,0.1,0.1,0.1,0.2,0.2c0,0,0.1,0.1,0.1,0.1c0.1,0,0.1,0.1,0.2,0.1
					c0,0,0.1,0.1,0.1,0.1c0.1,0,0.1,0.1,0.2,0.1c0,0,0.1,0.1,0.1,0.1c0.1,0.1,0.1,0.1,0.2,0.1c0,0,0.1,0.1,0.1,0.1
					c0,0,0.1,0.1,0.1,0.1c0,0,0.1,0,0.1,0.1c0,0,0.1,0.1,0.1,0.1c0,0,0.1,0,0.1,0.1c0,0,0.1,0.1,0.1,0.1c0,0,0.1,0,0.1,0.1
					c0,0,0.1,0,0.1,0.1c0,0,0,0,0.1,0.1c0,0,0.1,0.1,0.1,0.1c0,0,0.1,0,0.1,0.1c0,0,0.1,0.1,0.1,0.1c0,0,0,0,0.1,0.1
					c0,0,0.1,0,0.1,0.1c0,0,0.1,0,0.1,0.1c0,0,0.1,0,0.1,0.1c0,0,0.1,0,0.1,0.1c0,0,0,0,0,0c0,0,0,0,0,0c0.2,0.1,0.4,0.3,0.6,0.4
					c2.4,1.5,2.5,1.6,4.1,2.4l1.1,0.5c-2.2-1.5,8.8-7.1,18-9.2c3.5-0.8,9.9-1.9,12.5,0.3c2.9,3.5-7.2,9-8.6,8.6
					c-0.1,0-0.1-0.1-0.2-0.1c0-0.2,0-0.3,0.5-0.7c0.8-0.8-0.3-0.9-0.8-0.9c-3.1,0-10,3.2-8.9,4.1c0.1,0.1,0.4,0.1,0.9,0.1
					c0.5,0,1.2-0.1,1.7-0.2c1.3-0.2,1.3-0.2,2-0.3c1.1-0.2,1.1-0.2,1.6-0.4c0.9-0.3,0.9-0.3,1.4-0.4c0.8-0.3,0.8-0.3,1.2-0.4
					c0.8-0.3,0.8-0.3,1.2-0.5c0.8-0.3,0.8-0.3,1.1-0.5c0.8-0.4,0.8-0.4,1.2-0.6c0.8-0.5,0.9-0.5,1.3-0.7c1.9-1.2,3.4-2.3,5.5-4.3
					c1.2-1.2,2.1-2.2,3.4-4.1c0.5-0.7,1-1.7,1.5-2.6c0,0,0-0.1,0-0.1C61,48.9,61.1,48.8,61.1,48.7z"/>
			</g>
			<g>
				<linearGradient id="SVGID_6_" gradientUnits="userSpaceOnUse" x1="30.7742" y1="68.3687" x2="47.1768" y2="59.6767">
					<stop  offset="0" style="stop-color:#076BFF"/>
					<stop  offset="1" style="stop-color:#DD65F5"/>
				</linearGradient>
				<path class="st6" d="M41.5,63.5c1.1-0.2,1.1-0.2,1.6-0.4c0.9-0.3,0.9-0.3,1.4-0.4c0.8-0.3,0.8-0.3,1.2-0.4
					c0.8-0.3,0.8-0.3,1.2-0.5c0.8-0.3,0.8-0.3,1.1-0.5c0.8-0.4,0.8-0.4,1.2-0.6c0.8-0.5,0.9-0.5,1.3-0.7c1.1-0.7,2.1-1.4,3.2-2.3
					c-0.1,0-0.2-0.1-0.3-0.1c-2.4,2.3-6.3,4.1-7.2,3.9c-0.1,0-0.1-0.1-0.2-0.1c0-0.2,0-0.3,0.5-0.7c0.8-0.8-0.3-0.9-0.8-0.9
					c-3.1,0-10,3.2-8.9,4.1c0.1,0.1,0.4,0.1,0.9,0.1c0.5,0,1.2-0.1,1.7-0.2C40.8,63.6,40.8,63.6,41.5,63.5z"/>
				<linearGradient id="SVGID_7_" gradientUnits="userSpaceOnUse" x1="50.1651" y1="58.6319" x2="32.3604" y2="66.5528">
					<stop  offset="2.383810e-03" style="stop-color:#FFFFFF;stop-opacity:0"/>
					<stop  offset="0.997" style="stop-color:#7800B1"/>
				</linearGradient>
				<path class="st7" d="M41.5,63.5c1.1-0.2,1.1-0.2,1.6-0.4c0.9-0.3,0.9-0.3,1.4-0.4c0.8-0.3,0.8-0.3,1.2-0.4
					c0.8-0.3,0.8-0.3,1.2-0.5c0.8-0.3,0.8-0.3,1.1-0.5c0.8-0.4,0.8-0.4,1.2-0.6c0.8-0.5,0.9-0.5,1.3-0.7c1.1-0.7,2.1-1.4,3.2-2.3
					c-0.1,0-0.2-0.1-0.3-0.1c-2.4,2.3-6.3,4.1-7.2,3.9c-0.1,0-0.1-0.1-0.2-0.1c0-0.2,0-0.3,0.5-0.7c0.8-0.8-0.3-0.9-0.8-0.9
					c-3.1,0-10,3.2-8.9,4.1c0.1,0.1,0.4,0.1,0.9,0.1c0.5,0,1.2-0.1,1.7-0.2C40.8,63.6,40.8,63.6,41.5,63.5z"/>
			</g>
			<g>
				<linearGradient id="SVGID_8_" gradientUnits="userSpaceOnUse" x1="2.6635" y1="42.3764" x2="65.099" y2="18.9892">
					<stop  offset="0" style="stop-color:#4037FF"/>
					<stop  offset="1" style="stop-color:#FF87FF"/>
				</linearGradient>
				<path class="st8" d="M63.7,28.9c-0.8-2.8-0.8-3.1-1.6-4.9c-0.6-1.2-1.4-2.8-2.1-4c-0.7-0.9-1.6-2.1-4.7-3
					C37.6,12.7,8.4,26.4,7.5,29.8c-0.1,0.9-0.3,2-0.4,2.9c-0.2,2.9-0.2,3-0.1,4.7c0.3,2.9,0.3,3,0.7,4.7l0,0.1
					C8,37.8,45.1,21.8,60,28.4c1.2,0.5,3.9,1.6,4.3,4.4C64.1,31.6,63.9,30.1,63.7,28.9z"/>
				<linearGradient id="SVGID_9_" gradientUnits="userSpaceOnUse" x1="52.0917" y1="18.4484" x2="3.6236" y2="33.7401">
					<stop  offset="0" style="stop-color:#FF89FF"/>
					<stop  offset="5.625809e-02" style="stop-color:#F38AFF"/>
					<stop  offset="0.3835" style="stop-color:#B58DFF"/>
					<stop  offset="0.6602" style="stop-color:#878FFF"/>
					<stop  offset="0.8727" style="stop-color:#6B90FF"/>
					<stop  offset="0.9952" style="stop-color:#6091FF"/>
				</linearGradient>
				<path class="st9" d="M62.1,24c-0.6-1.2-1.4-2.8-2.1-4c-0.7-0.9-1.6-2.1-4.7-3c-8.5-2.1-19.8,0-29.2,3.2l0,0
					c-4.2,1.2,0.5-1.7,3.8-2.6c1.7-0.5,3.1-1.7-0.1-1.1c-5.3,1-22.2,9.5-22.3,13.3c-0.1,0.9-0.3,2-0.4,2.9C7,34.4,7,35.2,7,35.8
					c5.7-5.3,33.9-17.7,51.6-13.2c1.7,0.5,2.9,1.1,3.6,1.7C62.2,24.2,62.1,24.1,62.1,24z"/>
				<linearGradient id="SVGID_10_" gradientUnits="userSpaceOnUse" x1="74.4314" y1="15.2262" x2="8.4774" y2="37.7648">
					<stop  offset="2.383810e-03" style="stop-color:#FFFFFF;stop-opacity:0"/>
					<stop  offset="0.3761" style="stop-color:#C694DE;stop-opacity:0.3758"/>
					<stop  offset="0.6788" style="stop-color:#9C44C6;stop-opacity:0.68"/>
					<stop  offset="0.892" style="stop-color:#8213B7;stop-opacity:0.8944"/>
					<stop  offset="0.997" style="stop-color:#7800B1"/>
				</linearGradient>
				<path class="st10" d="M63.7,28.9c-0.8-2.8-0.8-3.1-1.6-4.9c-0.6-1.2-1.4-2.8-2.1-4c-0.7-0.9-1.6-2.1-4.7-3
					c-0.3-0.1-0.5-0.1-0.8-0.2c-0.1,0-0.2,0-0.3-0.1c-0.2,0-0.4-0.1-0.6-0.1c-0.1,0-0.2,0-0.3-0.1c-0.2,0-0.3-0.1-0.5-0.1
					c-0.1,0-0.2,0-0.4,0c-0.2,0-0.3,0-0.5-0.1c-0.1,0-0.3,0-0.4,0c-0.2,0-0.3,0-0.5,0c-0.1,0-0.3,0-0.4,0c-0.2,0-0.3,0-0.5,0
					c-0.1,0-0.3,0-0.4,0c-0.2,0-0.3,0-0.5,0c-0.1,0-0.3,0-0.4,0c-0.2,0-0.3,0-0.5,0c-0.1,0-0.3,0-0.4,0c-0.2,0-0.3,0-0.5,0
					c-0.2,0-0.3,0-0.5,0c-0.2,0-0.3,0-0.5,0c-0.2,0-0.3,0-0.5,0c-0.2,0-0.3,0-0.5,0c-0.2,0-0.3,0-0.5,0c-0.2,0-0.3,0-0.5,0
					c-0.2,0-0.3,0-0.5,0c-0.2,0-0.3,0-0.5,0c-0.2,0-0.3,0-0.5,0c-0.2,0-0.3,0-0.5,0c-0.2,0-0.3,0-0.5,0.1c-0.2,0-0.3,0-0.5,0.1
					c-0.2,0-0.3,0-0.5,0.1c-0.2,0-0.3,0-0.5,0.1c-0.2,0-0.3,0-0.5,0.1c-0.1,0-0.3,0-0.4,0.1c-0.2,0-0.3,0.1-0.5,0.1
					c-0.1,0-0.3,0-0.4,0.1c-0.2,0-0.4,0.1-0.5,0.1c-0.1,0-0.3,0.1-0.4,0.1c-0.2,0-0.4,0.1-0.5,0.1c-0.1,0-0.3,0.1-0.4,0.1
					c-0.2,0-0.4,0.1-0.6,0.1c-0.1,0-0.3,0.1-0.4,0.1c-0.2,0-0.4,0.1-0.6,0.1c-0.1,0-0.2,0.1-0.4,0.1c-0.2,0-0.4,0.1-0.6,0.1
					c-0.1,0-0.2,0.1-0.3,0.1c-0.2,0-0.4,0.1-0.6,0.1c-0.1,0-0.2,0-0.3,0.1c-0.2,0.1-0.4,0.1-0.7,0.2c-0.1,0-0.1,0-0.2,0.1
					c-0.2,0.1-0.5,0.1-0.7,0.2c0,0,0,0-0.1,0c-1.8,0.5-3.7,1-5.4,1.6l0,0c-4.2,1.2,0.5-1.7,3.8-2.6c1.7-0.5,3.1-1.7-0.1-1.1
					c-5.3,1-22.2,9.5-22.3,13.3c-0.1,0.9-0.3,2-0.4,2.9c0,0.1,0,0.2,0,0.3c0,0,0,0,0,0c0,0.3,0,0.5,0,0.8c0,0,0,0,0,0
					c0,0.2,0,0.4,0,0.6c0,0,0,0,0,0c0,0.1,0,0.1,0,0.2c0,0,0,0,0,0c0,0.1,0,0.1,0,0.2c0,0,0,0,0,0c0,0.1,0,0.1,0,0.2c0,0,0,0,0,0
					c0,0.2,0,0.4,0,0.6c0,0,0,0,0,0c0,0,0,0.1,0,0.1c0,0,0,0,0,0c0,0.5,0,1,0.1,1.7c0.3,2.9,0.3,3,0.7,4.7l0,0.1
					C8,37.8,45.1,21.8,60,28.4c1.2,0.5,3.9,1.6,4.3,4.4C64.1,31.6,63.9,30.1,63.7,28.9z"/>
			</g>
		</g>
		<g>
			<linearGradient id="SVGID_11_" gradientUnits="userSpaceOnUse" x1="12.2667" y1="18.6522" x2="27.7957" y2="9.3834">
				<stop  offset="0" style="stop-color:#F5CAE6"/>
				<stop  offset="1" style="stop-color:#F5DBF3"/>
			</linearGradient>
			<path class="st11" d="M13.2,17.6c0.6-0.7,1.4-1.6,2-2.3c1.8-1.7,3.1-2.9,5.7-4.5c0.9-0.5,0.9-0.5,1.3-0.7C23,9.6,23,9.6,23.4,9.4
				l0.5-0.2c-3.1,1.4-2.6,1.8-2.5,1.9c0.3,0.2,2-0.2,3.4-1v0c2.2-1,3.8-0.7,3.2,0.5c-1.5,3.7-14.2,9.3-15.1,7.7
				C12.8,18.1,13,17.8,13.2,17.6"/>
			<linearGradient id="SVGID_12_" gradientUnits="userSpaceOnUse" x1="11.5575" y1="24.3977" x2="21.6718" y2="13.014">
				<stop  offset="6.009600e-04" style="stop-color:#6DBDFB"/>
				<stop  offset="1" style="stop-color:#F5CAE6"/>
			</linearGradient>
			<path class="st12" d="M16.8,14.2c-0.1-0.1,0-0.3,0-0.4c-0.6,0.5-1.1,1-1.7,1.6c-0.6,0.7-1.4,1.6-2,2.3c-0.1,0.2-0.3,0.5-0.2,0.7
				c0.9,1.6,13.6-4,15.1-7.7c0.1-0.2,0.1-0.4,0.1-0.5C23.8,12.9,17.4,15.3,16.8,14.2z"/>
			<linearGradient id="SVGID_13_" gradientUnits="userSpaceOnUse" x1="12.8197" y1="34.249" x2="42.1329" y2="14.7752">
				<stop  offset="0" style="stop-color:#65CDFD"/>
				<stop  offset="1" style="stop-color:#FFD9F5"/>
			</linearGradient>
			<path class="st13" d="M48.8,9.8c12.5,6.3-18.3,27.8-35.4,32.3c-2.2,0.6-5.1,1.1-5.5,0.1c-0.4-1.1-1.5-6.7-0.3-12.4
				c0.1,3.5,21-4.7,30.1-14.5c3.4-3.6,4.9-8.1-2-8.6C41,6.5,45.3,8,48.8,9.8z"/>
			<linearGradient id="SVGID_14_" gradientUnits="userSpaceOnUse" x1="15.4492" y1="60.7171" x2="63.5152" y2="30.9325">
				<stop  offset="0" style="stop-color:#65CDFD"/>
				<stop  offset="1" style="stop-color:#FFD9F5"/>
			</linearGradient>
			<path class="st14" d="M60,20c0.2,0.4,0.5,1,0.6,1.5C63.6,33.7,21,59,14.4,54.6c2.4,3.1,8.1,6.6,10,7.1
				c10,2.5,40.7-15.2,39.9-28.5C64,27.5,61.6,22.4,60,20z"/>
			<linearGradient id="SVGID_15_" gradientUnits="userSpaceOnUse" x1="46.0691" y1="60.6156" x2="63.0493" y2="47.18">
				<stop  offset="6.009600e-04" style="stop-color:#6DBDFB"/>
				<stop  offset="1" style="stop-color:#F5CAE6"/>
			</linearGradient>
			<path class="st15" d="M59.4,51.6c-1,1.3-1.8,2.5-3.4,4.1c-1.4,1.4-2.8,2.7-5.5,4.3c-0.9,0.5-0.9,0.5-1.3,0.7
				c-0.8,0.4-0.8,0.4-1.2,0.6c-0.8,0.4-0.8,0.4-1.1,0.5c-0.8,0.3-0.8,0.3-1.2,0.5c-0.8,0.3-0.8,0.3-1.2,0.4
				c-0.9,0.3-0.9,0.3-1.4,0.4c-1,0.3-1.1,0.3-1.6,0.4c-1.2,0.2-1.3,0.2-2,0.3C39,63.9,38.3,64,37.8,64c4.8-0.6,19.2-7.8,23.5-15.7
				C60.8,49.3,60,50.7,59.4,51.6"/>
			<g>
				<linearGradient id="SVGID_16_" gradientUnits="userSpaceOnUse" x1="9.9872" y1="45.5004" x2="46.6332" y2="14.904">
					<stop  offset="0" style="stop-color:#13D2FD"/>
					<stop  offset="1" style="stop-color:#F5CAE6"/>
				</linearGradient>
				<path class="st16" d="M51.6,13.1c-0.1-0.5-0.3-0.9-0.6-1.4c0,0,0,0,0,0l0,0c-0.5-0.7-1.2-1.3-2.2-1.9c-2.1-1.1-4.6-2.1-7.3-2.6
					c0.8,0.3,1.5,0.5,2.2,0.9c10.7,5.4-13.9,24.6-32,28.2c-2,0.4-3.6,0.3-4.7,0.1c0.1,2.9,0.6,5.1,0.8,5.8c0.4,1.1,3.3,0.5,5.5-0.1
					C20.1,40.4,29,36,36.5,30.9c2.7-1.8,6.2-3.3,1.3,0.6c-3.1,2.5,0,2.6,5.6-1.9C52.8,22.1,52.4,15.8,51.6,13.1z"/>
				<linearGradient id="SVGID_17_" gradientUnits="userSpaceOnUse" x1="63.0317" y1="4.0604" x2="12.7641" y2="39.1872">
					<stop  offset="2.383810e-03" style="stop-color:#FFFFFF;stop-opacity:0"/>
					<stop  offset="0.3761" style="stop-color:#C694DE;stop-opacity:0.3758"/>
					<stop  offset="0.6788" style="stop-color:#9C44C6;stop-opacity:0.68"/>
					<stop  offset="0.892" style="stop-color:#8213B7;stop-opacity:0.8944"/>
					<stop  offset="0.997" style="stop-color:#7800B1"/>
				</linearGradient>
				<path class="st17" d="M51.6,13.1c-0.1-0.5-0.3-0.9-0.6-1.4c0,0,0,0,0,0l0,0c-0.5-0.7-1.2-1.3-2.2-1.9c-2.1-1.1-4.6-2.1-7.3-2.6
					c0.8,0.3,1.5,0.5,2.2,0.9c10.7,5.4-13.9,24.6-32,28.2c-2,0.4-3.6,0.3-4.7,0.1c0.1,2.9,0.6,5.1,0.8,5.8c0.4,1.1,3.3,0.5,5.5-0.1
					C20.1,40.4,29,36,36.5,30.9c2.7-1.8,6.2-3.3,1.3,0.6c-3.1,2.5,0,2.6,5.6-1.9C52.8,22.1,52.4,15.8,51.6,13.1z"/>
			</g>
			<g>
				<linearGradient id="SVGID_18_" gradientUnits="userSpaceOnUse" x1="21.8496" y1="42.2491" x2="39.3013" y2="31.8327">
					<stop  offset="0" style="stop-color:#13D2FD"/>
					<stop  offset="1" style="stop-color:#F5CAE6"/>
				</linearGradient>
				<path class="st18" d="M31.3,35.8c-0.8,0.8-0.5,1.3,0.6,1c1.4-0.3,2.8-1.3,3.4-2c0.8-0.9,0.1-1.2-0.9-0.9
					C33.8,34.2,32.1,35,31.3,35.8z"/>
				<linearGradient id="SVGID_19_" gradientUnits="userSpaceOnUse" x1="39.0654" y1="31.7565" x2="30.1467" y2="37.4114">
					<stop  offset="2.383810e-03" style="stop-color:#FFFFFF;stop-opacity:0"/>
					<stop  offset="0.997" style="stop-color:#7800B1"/>
				</linearGradient>
				<path class="st19" d="M31.3,35.8c-0.8,0.8-0.5,1.3,0.6,1c1.4-0.3,2.8-1.3,3.4-2c0.8-0.9,0.1-1.2-0.9-0.9
					C33.8,34.2,32.1,35,31.3,35.8z"/>
			</g>
			<g>
				<linearGradient id="SVGID_20_" gradientUnits="userSpaceOnUse" x1="28.0193" y1="64.1696" x2="57.2914" y2="32.7426">
					<stop  offset="0" style="stop-color:#65CDFD"/>
					<stop  offset="1" style="stop-color:#F5CAE6"/>
				</linearGradient>
				<path class="st20" d="M62.8,25.8c0,0.3,0,0.6,0,0.9c0.8,14.4-31.6,33.5-43.8,32.1c2.1,1.6,4.3,2.7,5.3,2.9
					c1.1,0.3,2.4,0.3,3.9,0.1l0,0c0.8-0.1,1.3,0.3,0.3,0.5c-1.1,0.2-2.3,0.2-4,0.1c-0.9-0.1-1.1,2.2,5.1,0.9
					C51.6,58.7,59.9,45,62.9,39l0,0c0.3-0.1-0.4,1.1-0.6,1.9c-0.3,1.2,1.3,1.5,2-3.6C64.9,33.3,63.7,28.3,62.8,25.8z"/>
				<linearGradient id="SVGID_21_" gradientUnits="userSpaceOnUse" x1="80.157" y1="25.299" x2="24.2357" y2="60.3888">
					<stop  offset="2.383810e-03" style="stop-color:#FFFFFF;stop-opacity:0"/>
					<stop  offset="0.3761" style="stop-color:#C694DE;stop-opacity:0.3758"/>
					<stop  offset="0.6788" style="stop-color:#9C44C6;stop-opacity:0.68"/>
					<stop  offset="0.892" style="stop-color:#8213B7;stop-opacity:0.8944"/>
					<stop  offset="0.997" style="stop-color:#7800B1"/>
				</linearGradient>
				<path class="st21" d="M62.8,25.8c0,0.3,0,0.6,0,0.9c0.8,14.4-31.6,33.5-43.8,32.1c2.1,1.6,4.3,2.7,5.3,2.9
					c1.1,0.3,2.4,0.3,3.9,0.1l0,0c0.8-0.1,1.3,0.3,0.3,0.5c-1.1,0.2-2.3,0.2-4,0.1c-0.9-0.1-1.1,2.2,5.1,0.9
					C51.6,58.7,59.9,45,62.9,39l0,0c0.3-0.1-0.4,1.1-0.6,1.9c-0.3,1.2,1.3,1.5,2-3.6C64.9,33.3,63.7,28.3,62.8,25.8z"/>
			</g>
			<g>
				<linearGradient id="SVGID_22_" gradientUnits="userSpaceOnUse" x1="12.0039" y1="18.2119" x2="27.5328" y2="8.943">
					<stop  offset="0" style="stop-color:#FFFFFF;stop-opacity:0"/>
					<stop  offset="0.9988" style="stop-color:#FFFFFF;stop-opacity:0.5"/>
				</linearGradient>
				<path class="st22" d="M28.1,10c-3.9,2.5-9.4,4.7-10.9,4.3c-0.2,0-0.3-0.1-0.3-0.2c0-0.1,0-0.2,0-0.3l0-0.1l0,0
					c-0.1,0.1-0.1,0.1-0.2,0.2c0,0.1,0,0.2,0,0.3c0.1,0.1,0.2,0.2,0.4,0.3c0.1,0,0.3,0,0.4,0c2,0,7-2,10.6-4.4
					C28.1,10.1,28.1,10,28.1,10L28.1,10z"/>
				<linearGradient id="SVGID_23_" gradientUnits="userSpaceOnUse" x1="9.8021" y1="39.8541" x2="45.8106" y2="9.7899">
					<stop  offset="0" style="stop-color:#FFFFFF;stop-opacity:0"/>
					<stop  offset="0.9988" style="stop-color:#FFFFFF;stop-opacity:0.5"/>
				</linearGradient>
				<path class="st23" d="M41.4,7.3c0.8,0.3,1.5,0.6,2.2,0.9c1.9,1,2.8,2.4,2.5,4.4c-0.5,3.6-5,8.8-12.2,13.7
					c-7.1,4.9-15.5,8.7-22.3,10.1c-1.7,0.3-3.3,0.4-4.6,0.1l0,0c0,0.1,0,0.1,0,0.2c0.6,0.1,1.3,0.2,2,0.2c0.9,0,1.8-0.1,2.7-0.3
					C18.5,35,26.9,31.3,34,26.3c7.1-4.9,11.7-10.1,12.2-13.8c0.3-2-0.6-3.5-2.6-4.5c-0.5-0.2-1-0.5-1.6-0.7c-0.5-0.1-1-0.2-1.4-0.3
					L41.4,7.3z"/>
				<linearGradient id="SVGID_24_" gradientUnits="userSpaceOnUse" x1="19.0136" y1="42.1441" x2="62.9336" y2="42.1441">
					<stop  offset="0" style="stop-color:#FFFFFF;stop-opacity:0"/>
					<stop  offset="0.9988" style="stop-color:#FFFFFF;stop-opacity:0.5"/>
				</linearGradient>
				<path class="st24" d="M62.9,26.7c0-0.2,0-0.4,0-0.7c-0.1-0.2-0.2-0.4-0.2-0.6l0.1,0.5c0,0.3,0,0.6,0.1,0.9
					c0.2,3.1-1.2,8.3-8.6,15.3c-4.9,4.6-11.6,9.1-18.4,12.4c-6.8,3.2-12.9,4.8-16.7,4.4l-0.1,0l0,0c0.1,0,0.1,0.1,0.2,0.1
					c0.4,0,0.8,0.1,1.2,0.1c8.5,0,24.1-7.7,33.9-16.9C58.4,38.2,63.2,32.4,62.9,26.7z"/>
			</g>
		</g>
	</g>
</g>
</svg>
