<?xml version="1.0" encoding="utf-8"?>
<!-- Generator: Adobe Illustrator 24.0.1, SVG Export Plug-In . SVG Version: 6.00 Build 0)  -->
<svg version="1.1" id="Layer_1" xmlns="http://www.w3.org/2000/svg" xmlns:xlink="http://www.w3.org/1999/xlink" x="0px" y="0px"
	 viewBox="0 0 474.9 473.4" style="enable-background:new 0 0 474.9 473.4;" xml:space="preserve">
<style type="text/css">
	.st0{fill:url(#SVGID_1_);}
	.st1{opacity:0.48;fill:url(#SVGID_2_);}
	.st2{fill:url(#SVGID_3_);}
	.st3{fill:url(#SVGID_4_);}
	.st4{opacity:0.48;fill:url(#SVGID_5_);}
	.st5{fill:url(#SVGID_6_);}
	.st6{opacity:0.48;fill:url(#SVGID_7_);}
	.st7{fill:url(#SVGID_8_);}
	.st8{fill:url(#SVGID_9_);}
	.st9{opacity:0.48;fill:url(#SVGID_10_);}
	.st10{fill:url(#SVGID_11_);}
	.st11{fill:url(#SVGID_12_);}
	.st12{fill:url(#SVGID_13_);}
	.st13{fill:url(#SVGID_14_);}
	.st14{fill:url(#SVGID_15_);}
	.st15{fill:url(#SVGID_16_);}
	.st16{opacity:0.68;fill:url(#SVGID_17_);}
	.st17{fill:url(#SVGID_18_);}
	.st18{opacity:0.68;fill:url(#SVGID_19_);}
	.st19{fill:url(#SVGID_20_);}
	.st20{opacity:0.68;fill:url(#SVGID_21_);}
	.st21{fill:url(#SVGID_22_);}
	.st22{fill:url(#SVGID_23_);}
	.st23{fill:url(#SVGID_24_);}
</style>
<g>
	<g>
		<g>
			<linearGradient id="SVGID_1_" gradientUnits="userSpaceOnUse" x1="58.9408" y1="88.6325" x2="301.9484" y2="1.9547">
				<stop  offset="0" style="stop-color:#076BFF"/>
				<stop  offset="1" style="stop-color:#DD65F5"/>
			</linearGradient>
			<path class="st0" d="M345.3,26.1c-8.7-4.1-20.6-9.2-29.5-12.7c-17.7-5.5-27.4-8.5-46.6-11.2c0.4,0.1-0.1,0,0,0
				c-0.4-0.1-0.9-0.1-1.3-0.2c-0.4-0.1-0.9-0.1-1.3-0.2c-1.3-0.2-2.6-0.3-3.8-0.5C245.6,0,243.4-0.2,229,0.1
				c-4.1,0.2-9.5,0.5-13.6,0.9c-34.4,3.9-60.1,13-75.6,19.9l-4.4,2c-6.4,3.1-6.5,3.2-9.8,4.9c-6.9,3.8-7.1,3.9-10.7,6
				c-19.2,12-31.1,21.5-47.3,37.5C62.6,76.9,56,84.4,51.2,90.2C80.7,58.8,217.6,4.1,316.7,17.9C330.6,19.8,335.3,21.6,345.3,26.1z"
				/>
			<linearGradient id="SVGID_2_" gradientUnits="userSpaceOnUse" x1="244.9938" y1="21.9395" x2="80.1957" y2="73.6991">
				<stop  offset="2.383810e-03" style="stop-color:#FFFFFF;stop-opacity:0"/>
				<stop  offset="0.997" style="stop-color:#7800B1"/>
			</linearGradient>
			<path class="st1" d="M345.3,26.1c-8.7-4.1-20.6-9.2-29.5-12.7c-17.7-5.5-27.4-8.5-46.6-11.2c0.4,0.1-0.1,0,0,0
				c-0.4-0.1-0.9-0.1-1.3-0.2c-0.4-0.1-0.9-0.1-1.3-0.2c-1.3-0.2-2.6-0.3-3.8-0.5C245.6,0,243.4-0.2,229,0.1
				c-4.1,0.2-9.5,0.5-13.6,0.9c-34.4,3.9-60.1,13-75.6,19.9l-4.4,2c-6.4,3.1-6.5,3.2-9.8,4.9c-6.9,3.8-7.1,3.9-10.7,6
				c-19.2,12-31.1,21.5-47.3,37.5C62.6,76.9,56,84.4,51.2,90.2C80.7,58.8,217.6,4.1,316.7,17.9C330.6,19.8,335.3,21.6,345.3,26.1z"
				/>
		</g>
		<g>
			<linearGradient id="SVGID_3_" gradientUnits="userSpaceOnUse" x1="-14.8667" y1="469.0309" x2="509.0611" y2="313.1926">
				<stop  offset="0" style="stop-color:#4037FF"/>
				<stop  offset="1" style="stop-color:#FF87FF"/>
			</linearGradient>
			<path class="st2" d="M435.1,290.5C319.4,240.7,55.6,373.4,60.5,394.2c0.1,0.6,0.7,1.3,1,1.8l10.1,10.5
				c17.7,16,18.4,16.6,29.8,24.6c19.4,12.5,20.6,13.2,33.5,19.5l9.1,4.1c-18.6-12,73-58.7,148.5-75.6c29.2-6.6,81.9-15.8,103.1,2.3
				c23.9,29.3-59.3,74.1-70.8,71.2c-0.5-0.1-1.1-0.5-1.5-0.7c0-1.9,0.1-2.5,4.1-5.8c6.4-6.8-2.4-7.4-6.5-7.4
				c-25.5,0.4-82.4,26.5-73.4,33.7c1.1,0.9,3.6,1.2,7.4,1c4.1-0.4,9.6-0.9,13.7-1.4c11-1.7,11-1.7,16.8-2.9c8.9-2,8.9-2,13.4-3.2
				c7.6-2.1,7.6-2.1,11.3-3.3c6.8-2.3,6.8-2.3,10.2-3.5c6.4-2.5,6.4-2.5,9.6-3.8c6.3-2.7,6.3-2.7,9.4-4.2c6.4-3.1,6.5-3.2,9.8-4.9
				c6.9-3.8,7.1-3.9,10.7-6c15.4-9.7,28.4-19,45.3-35.4c9.6-10.1,17.1-18.1,27.8-33.5c5.1-8,11.6-19,16.2-27.4
				C453.5,333.4,465.9,305.9,435.1,290.5z"/>
			<linearGradient id="SVGID_4_" gradientUnits="userSpaceOnUse" x1="402.5267" y1="292.1949" x2="-30.6655" y2="462.5615">
				<stop  offset="0" style="stop-color:#FF89FF"/>
				<stop  offset="0.9952" style="stop-color:#6091FF"/>
			</linearGradient>
			<path class="st3" d="M435.1,290.5c-62-26.7-166.5-0.9-249.5,31.9l0,0c-10.1,3.9-39.1,13.4-17.4-1.4s16.9-25.4-11.8-11.2
				c-28.7,14.2-113.8,64-95,86.2l10.1,10.5c14.7,13.3,17.7,16,24.8,21.1c36.7-32.7,237.1-124.5,330.2-84.4
				c7.6,3.8,12.2,8.4,14.9,13.3c2.6-4.4,5.1-8.9,7.3-12.7C453.5,333.4,465.9,305.9,435.1,290.5z"/>
			<linearGradient id="SVGID_5_" gradientUnits="userSpaceOnUse" x1="668.8186" y1="201.0367" x2="245.0245" y2="381.5546">
				<stop  offset="2.383810e-03" style="stop-color:#FFFFFF;stop-opacity:0"/>
				<stop  offset="0.3761" style="stop-color:#C694DE;stop-opacity:0.3758"/>
				<stop  offset="0.6788" style="stop-color:#9C44C6;stop-opacity:0.68"/>
				<stop  offset="0.892" style="stop-color:#8213B7;stop-opacity:0.8944"/>
				<stop  offset="0.997" style="stop-color:#7800B1"/>
			</linearGradient>
			<path class="st4" d="M447.1,346.8c0.6-1.1,1.2-2.1,1.7-3.1c4.7-10.4,17.1-37.9-13.7-53.3c-1.9-0.8-3.8-1.6-5.7-2.3
				c-0.7-0.2-1.3-0.4-2-0.7c-1.3-0.5-2.6-0.9-4-1.3c-0.8-0.2-1.6-0.5-2.4-0.7c-1.2-0.4-2.5-0.7-3.7-1c-0.9-0.2-1.8-0.4-2.7-0.6
				c-1.2-0.3-2.4-0.6-3.7-0.8c-0.9-0.2-1.9-0.4-2.9-0.5c-1.2-0.2-2.5-0.5-3.7-0.7c-1-0.2-2-0.3-3-0.4c-1.3-0.2-2.5-0.4-3.8-0.5
				c-1-0.1-2.1-0.2-3.1-0.3c-1.3-0.1-2.6-0.3-3.9-0.4c-1-0.1-2.1-0.2-3.2-0.2c-1.3-0.1-2.6-0.2-4-0.2c-1.1-0.1-2.1-0.1-3.2-0.1
				c-1.4,0-2.7-0.1-4.1-0.1c-1.1,0-2.1,0-3.2,0c-1.4,0-2.8,0-4.2,0c-1.1,0-2.1,0-3.2,0c-1.5,0-2.9,0.1-4.4,0.2c-1,0-2.1,0.1-3.1,0.1
				c-1.6,0.1-3.2,0.2-4.7,0.3c-1,0.1-1.9,0.1-2.9,0.2c-1.8,0.1-3.6,0.3-5.5,0.5c-0.8,0.1-1.5,0.1-2.3,0.2
				c-5.2,0.5-10.5,1.2-15.8,1.9c-0.8,0.1-1.5,0.2-2.3,0.3c-1.9,0.3-3.8,0.6-5.7,0.9c-1,0.2-2,0.3-2.9,0.5c-1.7,0.3-3.4,0.6-5.1,0.9
				c-1,0.2-2.1,0.4-3.2,0.6c-1.7,0.3-3.3,0.6-5,1c-1.1,0.2-2.2,0.4-3.3,0.7c-1.6,0.3-3.2,0.7-4.9,1c-1.1,0.2-2.2,0.5-3.3,0.7
				c-1.6,0.4-3.2,0.7-4.9,1.1c-1.1,0.3-2.2,0.5-3.4,0.8c-1.6,0.4-3.2,0.8-4.9,1.2c-1.1,0.3-2.2,0.6-3.3,0.8
				c-1.6,0.4-3.3,0.8-4.9,1.3c-1.1,0.3-2.2,0.6-3.3,0.9c-1.7,0.5-3.4,0.9-5,1.4c-1,0.3-2.1,0.6-3.1,0.9c-1.7,0.5-3.5,1-5.2,1.5
				c-1,0.3-2,0.6-3,0.9c-1.8,0.5-3.6,1.1-5.5,1.6c-0.9,0.3-1.8,0.5-2.6,0.8c-2,0.6-4,1.3-6,1.9c-0.7,0.2-1.4,0.4-2.1,0.7
				c-2.5,0.8-4.9,1.6-7.4,2.4c-0.2,0.1-0.4,0.1-0.6,0.2c-5.5,1.8-10.9,3.7-16.2,5.6c-0.3,0.1-0.6,0.2-0.9,0.3
				c-2.3,0.8-4.6,1.7-6.9,2.5c-0.6,0.2-1.2,0.5-1.8,0.7c-2,0.7-4,1.5-5.9,2.2c-0.7,0.3-1.4,0.6-2.2,0.8c-1.8,0.7-3.7,1.4-5.5,2.1
				c-0.2,0.1-0.5,0.2-0.7,0.3l0,0c-10.1,3.9-39.1,13.4-17.4-1.4c21.7-14.8,16.9-25.4-11.8-11.2c-28.7,14.2-113.8,64-95,86.2
				l10.1,10.5c1,0.9,1.9,1.7,2.8,2.5c0.3,0.3,0.6,0.5,0.9,0.8c0.6,0.6,1.2,1.1,1.8,1.6c0.3,0.3,0.7,0.6,1,0.9
				c0.4,0.4,0.9,0.8,1.3,1.2c0.3,0.3,0.7,0.6,1,0.9c0.4,0.4,0.8,0.8,1.2,1.1c0.2,0.2,0.5,0.5,0.7,0.7c0.5,0.4,0.9,0.8,1.4,1.2
				c0.3,0.3,0.6,0.5,0.9,0.8c0.4,0.3,0.8,0.7,1.1,1c0.2,0.2,0.4,0.4,0.6,0.6c0.3,0.2,0.6,0.5,0.8,0.7c0.2,0.2,0.4,0.4,0.6,0.5
				c0.3,0.2,0.5,0.4,0.7,0.6c0.2,0.2,0.4,0.4,0.6,0.5c0.2,0.2,0.5,0.4,0.7,0.6c0.2,0.1,0.4,0.3,0.6,0.4c0.3,0.2,0.6,0.5,0.9,0.7
				c0.2,0.2,0.5,0.4,0.7,0.6c0.3,0.2,0.5,0.4,0.8,0.6c0.2,0.1,0.4,0.3,0.6,0.5c0.2,0.2,0.5,0.3,0.7,0.5c0.2,0.2,0.5,0.3,0.7,0.5
				c0.2,0.2,0.5,0.3,0.7,0.5c0.2,0.2,0.5,0.4,0.7,0.5c0.1,0,0.1,0.1,0.2,0.1c0,0,0,0,0,0c1.4,1,3,2.2,5,3.5
				c19.4,12.5,20.6,13.2,33.5,19.5l9.1,4.1c-18.6-12,73-58.7,148.5-75.6c29.2-6.6,81.9-15.8,103.1,2.3
				c23.9,29.3-59.3,74.1-70.8,71.2c-0.5-0.1-1.1-0.5-1.5-0.7c0-1.9,0.1-2.5,4.1-5.8c6.4-6.8-2.4-7.4-6.5-7.4
				c-25.5,0.4-82.4,26.5-73.4,33.7c1.1,0.9,3.6,1.2,7.4,1c4.1-0.4,9.6-0.9,13.7-1.4c11-1.7,11-1.7,16.8-2.9c8.9-2,8.9-2,13.4-3.2
				c7.6-2.1,7.6-2.1,11.3-3.3c6.8-2.3,6.8-2.3,10.2-3.5c6.4-2.5,6.4-2.5,9.6-3.8c6.3-2.7,6.3-2.7,9.4-4.2c6.4-3.1,6.5-3.2,9.8-4.9
				c6.9-3.8,7.1-3.9,10.7-6c15.4-9.7,28.4-19,45.3-35.4c9.6-10.1,17.1-18.1,27.8-33.5c3.9-6.2,8.7-14,12.7-21.2
				c0.1-0.2,0.2-0.4,0.4-0.6C446.1,348.5,446.6,347.7,447.1,346.8z"/>
		</g>
		<g>
			<linearGradient id="SVGID_6_" gradientUnits="userSpaceOnUse" x1="196.5087" y1="509.4741" x2="331.9372" y2="437.7085">
				<stop  offset="0" style="stop-color:#076BFF"/>
				<stop  offset="1" style="stop-color:#DD65F5"/>
			</linearGradient>
			<path class="st5" d="M285.2,469.1c8.9-2,8.9-2,13.4-3.2c7.6-2.1,7.6-2.1,11.3-3.3c6.8-2.3,6.8-2.3,10.2-3.5
				c6.4-2.5,6.4-2.5,9.6-3.8c6.3-2.7,6.3-2.7,9.4-4.2c6.4-3.1,6.5-3.2,9.8-4.9c6.9-3.8,7.1-3.9,10.7-6c9.3-5.8,17.6-11.5,26.5-18.6
				c-0.7-0.4-1.5-0.8-2.2-1.1c-19.9,18.8-52.3,34.1-59.2,32.3c-0.5-0.1-1.1-0.5-1.5-0.7c0-1.9,0.1-2.5,4.1-5.8
				c6.4-6.8-2.4-7.4-6.5-7.4c-25.5,0.4-82.4,26.5-73.4,33.7c1.1,0.9,3.6,1.2,7.4,1c4.1-0.4,9.6-0.9,13.7-1.4
				C279.4,470.3,279.4,470.3,285.2,469.1z"/>
			<linearGradient id="SVGID_7_" gradientUnits="userSpaceOnUse" x1="356.6103" y1="429.0815" x2="209.6058" y2="494.4811">
				<stop  offset="2.383810e-03" style="stop-color:#FFFFFF;stop-opacity:0"/>
				<stop  offset="0.997" style="stop-color:#7800B1"/>
			</linearGradient>
			<path class="st6" d="M285.2,469.1c8.9-2,8.9-2,13.4-3.2c7.6-2.1,7.6-2.1,11.3-3.3c6.8-2.3,6.8-2.3,10.2-3.5
				c6.4-2.5,6.4-2.5,9.6-3.8c6.3-2.7,6.3-2.7,9.4-4.2c6.4-3.1,6.5-3.2,9.8-4.9c6.9-3.8,7.1-3.9,10.7-6c9.3-5.8,17.6-11.5,26.5-18.6
				c-0.7-0.4-1.5-0.8-2.2-1.1c-19.9,18.8-52.3,34.1-59.2,32.3c-0.5-0.1-1.1-0.5-1.5-0.7c0-1.9,0.1-2.5,4.1-5.8
				c6.4-6.8-2.4-7.4-6.5-7.4c-25.5,0.4-82.4,26.5-73.4,33.7c1.1,0.9,3.6,1.2,7.4,1c4.1-0.4,9.6-0.9,13.7-1.4
				C279.4,470.3,279.4,470.3,285.2,469.1z"/>
		</g>
		<g>
			<linearGradient id="SVGID_8_" gradientUnits="userSpaceOnUse" x1="-35.587" y1="294.868" x2="479.9116" y2="101.772">
				<stop  offset="0" style="stop-color:#4037FF"/>
				<stop  offset="1" style="stop-color:#FF87FF"/>
			</linearGradient>
			<path class="st7" d="M468.2,183.7c-6.4-23.5-7-25.4-13.3-40.4c-4.8-10.1-11.8-23.4-17.4-33.1c-5.8-7.6-13.1-17.1-38.8-24.7
				c-146-35.3-387.1,77.2-394,105.8c-1.1,7.2-2.7,16.7-3.5,23.9C0,239-0.1,239.9,0.8,253.9c2.7,24.2,2.8,25.1,6,38.7l0.2,0.8
				C8.2,256.8,315,124.7,437.5,179.7c10,4.5,32.2,12.9,35.8,36C472,205.5,470.1,193.2,468.2,183.7z"/>
			<linearGradient id="SVGID_9_" gradientUnits="userSpaceOnUse" x1="372.5172" y1="97.3067" x2="-27.6601" y2="223.5627">
				<stop  offset="0" style="stop-color:#FF89FF"/>
				<stop  offset="5.625809e-02" style="stop-color:#F38AFF"/>
				<stop  offset="0.3835" style="stop-color:#B58DFF"/>
				<stop  offset="0.6602" style="stop-color:#878FFF"/>
				<stop  offset="0.8727" style="stop-color:#6B90FF"/>
				<stop  offset="0.9952" style="stop-color:#6091FF"/>
			</linearGradient>
			<path class="st8" d="M455,143.3c-4.8-10.1-11.8-23.4-17.4-33.1c-5.8-7.6-13.1-17.1-38.8-24.7c-70.5-17-163.1,0.4-240.8,26.1l0,0
				c-34.4,10,4-13.9,31.4-21.3c14-3.8,25.9-14.2-0.6-9c-43.7,8.6-183.2,78.5-184,110c-1.1,7.2-2.7,16.7-3.5,23.9
				c-0.8,14-1.1,20.1-1.1,25.6C47.4,197.2,279.9,94.9,426,131.4c14.4,4.4,23.5,9.4,29.9,14.3C455.6,144.9,455.3,144.1,455,143.3z"/>
			<linearGradient id="SVGID_10_" gradientUnits="userSpaceOnUse" x1="556.9648" y1="70.7024" x2="12.4157" y2="256.7929">
				<stop  offset="2.383810e-03" style="stop-color:#FFFFFF;stop-opacity:0"/>
				<stop  offset="0.3761" style="stop-color:#C694DE;stop-opacity:0.3758"/>
				<stop  offset="0.6788" style="stop-color:#9C44C6;stop-opacity:0.68"/>
				<stop  offset="0.892" style="stop-color:#8213B7;stop-opacity:0.8944"/>
				<stop  offset="0.997" style="stop-color:#7800B1"/>
			</linearGradient>
			<path class="st9" d="M468.2,183.7c-6.4-23.5-7-25.4-13.3-40.4c-4.8-10.1-11.8-23.4-17.4-33.1c-5.8-7.6-13.1-17.1-38.8-24.7
				c-2.2-0.5-4.5-1-6.8-1.5c-0.8-0.2-1.6-0.3-2.3-0.4c-1.5-0.3-3.1-0.6-4.6-0.9c-0.9-0.2-1.9-0.3-2.8-0.5c-1.4-0.2-2.8-0.5-4.2-0.7
				c-1-0.1-2.1-0.3-3.1-0.4c-1.4-0.2-2.7-0.4-4.1-0.5c-1.1-0.1-2.2-0.2-3.3-0.3c-1.3-0.1-2.7-0.3-4-0.4c-1.1-0.1-2.3-0.2-3.4-0.3
				c-1.3-0.1-2.6-0.2-4-0.3c-1.2-0.1-2.3-0.1-3.5-0.2c-1.3-0.1-2.6-0.1-4-0.2c-1.2,0-2.4-0.1-3.6-0.1c-1.3,0-2.6-0.1-4-0.1
				c-1.2,0-2.4,0-3.6,0c-1.3,0-2.6,0-4,0c-1.2,0-2.5,0-3.7,0.1c-1.3,0-2.6,0-3.9,0.1c-1.3,0-2.5,0.1-3.8,0.1c-1.3,0-2.6,0.1-3.9,0.2
				c-1.3,0.1-2.6,0.1-3.9,0.2c-1.3,0.1-2.6,0.2-3.9,0.2c-1.3,0.1-2.6,0.2-3.9,0.3c-1.3,0.1-2.6,0.2-3.9,0.3c-1.3,0.1-2.7,0.2-4,0.4
				c-1.3,0.1-2.6,0.2-3.9,0.4c-1.4,0.1-2.7,0.3-4.1,0.4c-1.3,0.1-2.6,0.3-3.8,0.4c-1.4,0.2-2.8,0.3-4.1,0.5
				c-1.3,0.2-2.5,0.3-3.8,0.5c-1.4,0.2-2.8,0.4-4.2,0.6c-1.2,0.2-2.5,0.4-3.7,0.5c-1.4,0.2-2.9,0.4-4.3,0.7
				c-1.2,0.2-2.4,0.4-3.6,0.6c-1.5,0.2-2.9,0.5-4.4,0.7c-1.2,0.2-2.4,0.4-3.5,0.6c-1.5,0.3-3,0.5-4.5,0.8c-1.1,0.2-2.3,0.4-3.4,0.6
				c-1.5,0.3-3.1,0.6-4.6,0.9c-1.1,0.2-2.1,0.4-3.2,0.7c-1.6,0.3-3.2,0.7-4.8,1c-1,0.2-2,0.4-3,0.7c-1.6,0.4-3.3,0.7-4.9,1.1
				c-0.9,0.2-1.9,0.4-2.8,0.6c-1.7,0.4-3.4,0.8-5.2,1.2c-0.8,0.2-1.6,0.4-2.4,0.6c-1.8,0.5-3.7,0.9-5.5,1.4
				c-0.6,0.1-1.1,0.3-1.7,0.4c-2.1,0.5-4.1,1.1-6.1,1.6c-0.2,0-0.4,0.1-0.5,0.1c-15.2,4-30.1,8.5-44.6,13.3l0,0
				c-34.4,10,4-13.9,31.4-21.3c14-3.8,25.9-14.2-0.6-9c-43.7,8.6-183.2,78.5-184,110c-1.1,7.2-2.7,16.7-3.5,23.9
				c0,0.8-0.1,1.6-0.1,2.4c0,0.1,0,0.2,0,0.3c-0.1,2.4-0.2,4.5-0.3,6.4c0,0,0,0,0,0c-0.1,2-0.2,3.7-0.3,5.3c0,0,0,0,0,0
				c0,0.5,0,1-0.1,1.5c0,0,0,0.1,0,0.1c0,0.4,0,0.9-0.1,1.3c0,0,0,0.1,0,0.1c0,0.4,0,0.9,0,1.3c0,0,0,0,0,0
				c-0.1,1.7-0.1,3.3-0.1,4.7c0,0,0,0,0,0.1c0,0.3,0,0.7,0,1c0,0,0,0,0,0c0,4.3,0.2,7.9,0.6,14.2c2.7,24.2,2.8,25.1,6,38.7l0.2,0.8
				C8.2,256.8,315,124.7,437.5,179.7c10,4.5,32.2,12.9,35.8,36C472,205.5,470.1,193.2,468.2,183.7z"/>
		</g>
	</g>
	<g>
		<linearGradient id="SVGID_11_" gradientUnits="userSpaceOnUse" x1="43.702" y1="98.9899" x2="171.9174" y2="22.4614">
			<stop  offset="0" style="stop-color:#F5CAE6"/>
			<stop  offset="1" style="stop-color:#F5DBF3"/>
		</linearGradient>
		<path class="st10" d="M51.2,90.2c4.8-5.8,11.4-13.3,16.5-18.8C82.4,57,93.7,47.2,115,33.9c7.1-4.1,7.1-4.1,10.7-6
			c6.5-3.4,6.5-3.4,9.8-4.9l4.4-2c-25.5,11.9-21.5,15.2-21,15.5c2.8,1.7,16.5-1.9,28.4-8.6v0c17.8-8.2,31-6,26.6,4.5
			C161.3,62.9,56.7,109.2,49.4,95.8C48.4,94.1,50.1,91.6,51.2,90.2"/>
		<linearGradient id="SVGID_12_" gradientUnits="userSpaceOnUse" x1="37.8464" y1="146.4274" x2="121.355" y2="52.4379">
			<stop  offset="6.009600e-04" style="stop-color:#6DBDFB"/>
			<stop  offset="1" style="stop-color:#F5CAE6"/>
		</linearGradient>
		<path class="st11" d="M81.1,61.8c-0.5-1-0.2-2.2,0.4-3.4c-4.6,4-9,8.2-13.8,12.9C62.6,76.9,56,84.5,51.2,90.2
			c-1.1,1.3-2.8,3.8-1.8,5.5c7.3,13.5,111.9-32.9,124.6-63.4c0.7-1.7,0.9-3.1,0.8-4.4C139.2,51.3,86.2,71.3,81.1,61.8z"/>
		<linearGradient id="SVGID_13_" gradientUnits="userSpaceOnUse" x1="48.2679" y1="227.7646" x2="290.2925" y2="66.9791">
			<stop  offset="0" style="stop-color:#65CDFD"/>
			<stop  offset="1" style="stop-color:#FFD9F5"/>
		</linearGradient>
		<path class="st12" d="M345.3,26.1C448.2,78.4,194.6,255.9,52.7,292.9c-18.2,4.7-42.3,9.3-45.6,0.6C3.5,284.1-5.5,238,4.7,191.2
			c0.6,28.6,173.8-39.2,248.2-119.6c27.8-30.1,40.2-66.7-16.3-71.1C280.9-1.1,316.1,11.2,345.3,26.1z"/>
		<linearGradient id="SVGID_14_" gradientUnits="userSpaceOnUse" x1="69.978" y1="446.2984" x2="466.8355" y2="200.382">
			<stop  offset="0" style="stop-color:#65CDFD"/>
			<stop  offset="1" style="stop-color:#FFD9F5"/>
		</linearGradient>
		<path class="st13" d="M437.5,110.1c1.9,3.6,4.3,8.5,5.3,12.5C467.2,222.9,115.5,432.5,61.5,396c20.1,25.6,66.8,54.8,82.4,58.8
			c82.3,20.7,335.6-125.5,329.8-235.5C471.1,172.3,451.3,130.3,437.5,110.1z"/>
		<linearGradient id="SVGID_15_" gradientUnits="userSpaceOnUse" x1="322.7914" y1="445.4602" x2="462.9886" y2="334.5295">
			<stop  offset="6.009600e-04" style="stop-color:#6DBDFB"/>
			<stop  offset="1" style="stop-color:#F5CAE6"/>
		</linearGradient>
		<path class="st14" d="M432.6,371.1c-8,10.9-14.9,20.4-27.8,33.5C393,416,381.4,426.5,359.5,440c-7.1,4.1-7.1,4.1-10.7,6
			c-6.5,3.4-6.5,3.4-9.8,4.9c-6.3,2.9-6.3,2.9-9.4,4.2c-6.3,2.6-6.3,2.6-9.6,3.8c-6.6,2.4-6.7,2.4-10.2,3.5
			c-7.3,2.3-7.5,2.3-11.3,3.3c-8.4,2.1-8.7,2.2-13.4,3.2c-10.2,1.9-10.8,2-16.8,2.9c-4.1,0.5-9.6,1.1-13.7,1.4
			c39.6-4.8,158.7-64,194.1-129.6C444.2,352.1,438,363.2,432.6,371.1"/>
		<g>
			<linearGradient id="SVGID_16_" gradientUnits="userSpaceOnUse" x1="24.8815" y1="320.6619" x2="327.4488" y2="68.0422">
				<stop  offset="0" style="stop-color:#13D2FD"/>
				<stop  offset="1" style="stop-color:#F5CAE6"/>
			</linearGradient>
			<path class="st15" d="M368.5,53c-0.8-4-2.4-7.8-4.7-11.4c0,0-0.1-0.1-0.1-0.1l0,0c-3.9-5.9-9.9-11.1-18.4-15.4
				C327.6,17,307.6,9,284.7,4.4c6.4,2.1,12.5,4.5,18.1,7.4c88,44.8-114.8,203.4-264.2,233.1c-16.8,3.3-29.5,2.7-38.5,0.8
				c0.8,23.8,4.8,42.3,6.9,47.9c3.3,8.8,27.4,4.2,45.6-0.6c55.9-14.6,129-50.9,191-92.8c22.1-15,51.2-27,11.1,5.3
				c-25.3,20.4,0,21.1,45.8-15.6C378.1,127.6,374.8,75.1,368.5,53z"/>
			<linearGradient id="SVGID_17_" gradientUnits="userSpaceOnUse" x1="462.8432" y1="-21.4878" x2="47.8087" y2="268.5367">
				<stop  offset="2.383810e-03" style="stop-color:#FFFFFF;stop-opacity:0"/>
				<stop  offset="0.3761" style="stop-color:#C694DE;stop-opacity:0.3758"/>
				<stop  offset="0.6788" style="stop-color:#9C44C6;stop-opacity:0.68"/>
				<stop  offset="0.892" style="stop-color:#8213B7;stop-opacity:0.8944"/>
				<stop  offset="0.997" style="stop-color:#7800B1"/>
			</linearGradient>
			<path class="st16" d="M368.5,53c-0.8-4-2.4-7.8-4.7-11.4c0,0-0.1-0.1-0.1-0.1l0,0c-3.9-5.9-9.9-11.1-18.4-15.4
				C327.6,17,307.6,9,284.7,4.4c6.4,2.1,12.5,4.5,18.1,7.4c88,44.8-114.8,203.4-264.2,233.1c-16.8,3.3-29.5,2.7-38.5,0.8
				c0.8,23.8,4.8,42.3,6.9,47.9c3.3,8.8,27.4,4.2,45.6-0.6c55.9-14.6,129-50.9,191-92.8c22.1-15,51.2-27,11.1,5.3
				c-25.3,20.4,0,21.1,45.8-15.6C378.1,127.6,374.8,75.1,368.5,53z"/>
		</g>
		<g>
			<linearGradient id="SVGID_18_" gradientUnits="userSpaceOnUse" x1="122.8235" y1="293.8174" x2="266.9132" y2="207.8139">
				<stop  offset="0" style="stop-color:#13D2FD"/>
				<stop  offset="1" style="stop-color:#F5CAE6"/>
			</linearGradient>
			<path class="st17" d="M201,240.8c-6.8,6.8-4.3,10.6,4.9,8.5c11.5-2.7,23.1-10.5,28-16.2c6.5-7.5,0.7-10-7.5-7.4
				C221.3,227.3,207.6,234.2,201,240.8z"/>
			<linearGradient id="SVGID_19_" gradientUnits="userSpaceOnUse" x1="264.9652" y1="207.1851" x2="191.3285" y2="253.8751">
				<stop  offset="2.383810e-03" style="stop-color:#FFFFFF;stop-opacity:0"/>
				<stop  offset="0.997" style="stop-color:#7800B1"/>
			</linearGradient>
			<path class="st18" d="M201,240.8c-6.8,6.8-4.3,10.6,4.9,8.5c11.5-2.7,23.1-10.5,28-16.2c6.5-7.5,0.7-10-7.5-7.4
				C221.3,227.3,207.6,234.2,201,240.8z"/>
		</g>
		<g>
			<linearGradient id="SVGID_20_" gradientUnits="userSpaceOnUse" x1="173.7633" y1="474.8042" x2="415.4481" y2="215.3268">
				<stop  offset="0" style="stop-color:#65CDFD"/>
				<stop  offset="1" style="stop-color:#F5CAE6"/>
			</linearGradient>
			<path class="st19" d="M461,157.8c0.2,2.4,0.2,5,0.3,7.4c6.3,119.2-260.9,276.6-361.2,265.3c17.4,12.8,35.1,22.1,43.8,24.3
				c8.8,2.2,19.6,2.5,31.9,1.1l0,0c6.9-0.6,10.8,2.3,2.4,3.8c-9.4,1.6-19.3,1.9-33.4,0.7c-7.3-0.6-9,17.8,41.8,7.3
				C368.3,429.9,437.3,316.4,462,267.1l0,0c2.8-0.7-3.1,8.9-4.6,15.5c-2.3,10,10.4,12.4,16.3-29.9C478.4,219.6,468.7,179,461,157.8z
				"/>
			<linearGradient id="SVGID_21_" gradientUnits="userSpaceOnUse" x1="604.2382" y1="153.8689" x2="142.524" y2="443.5882">
				<stop  offset="2.383810e-03" style="stop-color:#FFFFFF;stop-opacity:0"/>
				<stop  offset="0.3761" style="stop-color:#C694DE;stop-opacity:0.3758"/>
				<stop  offset="0.6788" style="stop-color:#9C44C6;stop-opacity:0.68"/>
				<stop  offset="0.892" style="stop-color:#8213B7;stop-opacity:0.8944"/>
				<stop  offset="0.997" style="stop-color:#7800B1"/>
			</linearGradient>
			<path class="st20" d="M461,157.8c0.2,2.4,0.2,5,0.3,7.4c6.3,119.2-260.9,276.6-361.2,265.3c17.4,12.8,35.1,22.1,43.8,24.3
				c8.8,2.2,19.6,2.5,31.9,1.1l0,0c6.9-0.6,10.8,2.3,2.4,3.8c-9.4,1.6-19.3,1.9-33.4,0.7c-7.3-0.6-9,17.8,41.8,7.3
				C368.3,429.9,437.3,316.4,462,267.1l0,0c2.8-0.7-3.1,8.9-4.6,15.5c-2.3,10,10.4,12.4,16.3-29.9C478.4,219.6,468.7,179,461,157.8z
				"/>
		</g>
		<g>
			<linearGradient id="SVGID_22_" gradientUnits="userSpaceOnUse" x1="41.5319" y1="95.3538" x2="169.7467" y2="18.8257">
				<stop  offset="0" style="stop-color:#FFFFFF;stop-opacity:0"/>
				<stop  offset="0.9988" style="stop-color:#FFFFFF;stop-opacity:0.5"/>
			</linearGradient>
			<path class="st21" d="M174.4,27.4C142.5,48.3,97,66.4,84.3,63.2c-1.3-0.3-2.2-0.9-2.6-1.7c-0.3-0.6-0.2-1.6,0.4-2.7l0.3-0.6
				L82,58c-0.5,0.5-1.1,1-1.6,1.5c-0.3,1-0.3,1.9,0.1,2.7c0.6,1.1,1.8,1.9,3.5,2.3c1,0.3,2.3,0.4,3.7,0.4
				c16.4,0,57.5-16.8,87.1-36.1c0-0.5-0.1-1-0.2-1.5L174.4,27.4z"/>
			<linearGradient id="SVGID_23_" gradientUnits="userSpaceOnUse" x1="23.3532" y1="274.0433" x2="320.6572" y2="25.818">
				<stop  offset="0" style="stop-color:#FFFFFF;stop-opacity:0"/>
				<stop  offset="0.9988" style="stop-color:#FFFFFF;stop-opacity:0.5"/>
			</linearGradient>
			<path class="st22" d="M284.5,5c6.5,2.1,12.6,4.6,18,7.3c15.8,8.1,22.8,20.2,20.6,36c-4.2,30.1-41.7,72.3-100.4,112.9
				c-59,40.8-127.9,71.8-184.3,83c-14.3,2.8-27.2,3.1-38.3,0.8l-0.2,0c0,0.5,0,0.9,0,1.4c5,1,10.4,1.6,16.1,1.6
				c7,0,14.5-0.8,22.5-2.4c56.6-11.2,125.6-42.4,184.7-83.2c59-40.8,96.7-83.3,100.9-113.8c2.3-16.4-4.9-29-21.3-37.3
				c-4-2-8.4-3.9-13.1-5.6c-3.9-0.9-7.9-1.7-12-2.4L284.5,5z"/>
			<linearGradient id="SVGID_24_" gradientUnits="userSpaceOnUse" x1="99.4077" y1="292.9505" x2="462.0332" y2="292.9505">
				<stop  offset="0" style="stop-color:#FFFFFF;stop-opacity:0"/>
				<stop  offset="0.9988" style="stop-color:#FFFFFF;stop-opacity:0.5"/>
			</linearGradient>
			<path class="st23" d="M461.9,165.2c-0.1-1.8-0.2-3.6-0.4-5.8c-0.6-1.8-1.2-3.5-1.9-5.2l0.4,4c0.2,2.7,0.4,5,0.5,7.1
				c1.4,25.8-9.8,68.6-70.7,126c-40.4,38.1-95.8,75.3-152,102.1c-56,26.7-106.2,40-137.8,36.5l-0.7-0.1l0,0.3
				c0.6,0.4,1.2,0.8,1.7,1.2c3.2,0.3,6.5,0.5,9.9,0.5c70.3,0,199-63.4,279.7-139.5C424.6,260.4,464.4,212.4,461.9,165.2z"/>
		</g>
	</g>
</g>
</svg>
