<?xml version="1.0" encoding="utf-8"?>
<!-- Generator: Adobe Illustrator 24.0.1, SVG Export Plug-In . SVG Version: 6.00 Build 0)  -->
<svg version="1.1" id="Layer_1" xmlns="http://www.w3.org/2000/svg" xmlns:xlink="http://www.w3.org/1999/xlink" x="0px" y="0px"
	 viewBox="0 0 11.6 15" style="enable-background:new 0 0 11.6 15;" xml:space="preserve">
<style type="text/css">
	.st0{fill:#FFFFFF;}
</style>
<g>
	<g id="Layer_1_12_">
		<g>
			<path class="st0" d="M10.9,0H0.7C0.3,0,0,0.3,0,0.7v13.6C0,14.7,0.3,15,0.7,15h10.2c0.4,0,0.7-0.3,0.7-0.7V0.7
				C11.6,0.3,11.3,0,10.9,0z M10.2,1.4v2H1.4v-2H10.2z M1.4,13.6V4.8h8.9v8.9L1.4,13.6L1.4,13.6z"/>
			<path class="st0" d="M3.6,11.3h-1c-0.1,0-0.2,0.1-0.2,0.2v1c0,0.1,0.1,0.2,0.2,0.2h1c0.1,0,0.2-0.1,0.2-0.2v-1
				C3.8,11.4,3.7,11.3,3.6,11.3z"/>
			<path class="st0" d="M3.6,8.4h-1c-0.1,0-0.2,0.1-0.2,0.2v1c0,0.1,0.1,0.2,0.2,0.2h1c0.1,0,0.2-0.1,0.2-0.2v-1
				C3.8,8.5,3.7,8.4,3.6,8.4z"/>
			<path class="st0" d="M3.6,5.6h-1c-0.1,0-0.2,0.1-0.2,0.2v1C2.4,6.9,2.5,7,2.7,7h1c0.1,0,0.2-0.1,0.2-0.2v-1
				C3.8,5.7,3.7,5.6,3.6,5.6z"/>
			<path class="st0" d="M6.3,11.3h-1c-0.1,0-0.2,0.1-0.2,0.2v1c0,0.1,0.1,0.2,0.2,0.2h1c0.1,0,0.2-0.1,0.2-0.2v-1
				C6.5,11.4,6.4,11.3,6.3,11.3z"/>
			<path class="st0" d="M9.1,8.4h-1C8,8.4,7.9,8.6,7.9,8.7v3.7c0,0.2,0.1,0.3,0.2,0.3h1c0.1,0,0.2-0.1,0.2-0.3V8.7
				C9.3,8.6,9.2,8.4,9.1,8.4z"/>
			<path class="st0" d="M6.3,8.4h-1c-0.1,0-0.2,0.1-0.2,0.2v1c0,0.1,0.1,0.2,0.2,0.2h1c0.1,0,0.2-0.1,0.2-0.2v-1
				C6.5,8.5,6.4,8.4,6.3,8.4z"/>
			<path class="st0" d="M6.3,5.6h-1c-0.1,0-0.2,0.1-0.2,0.2v1C5.1,6.9,5.2,7,5.3,7h1c0.1,0,0.2-0.1,0.2-0.2v-1
				C6.5,5.7,6.4,5.6,6.3,5.6z"/>
			<path class="st0" d="M9.1,5.6h-1C8,5.6,7.9,5.7,7.9,5.8v1C7.9,6.9,8,7,8.2,7h1c0.1,0,0.2-0.1,0.2-0.2v-1C9.4,5.7,9.2,5.6,9.1,5.6
				z"/>
		</g>
	</g>
</g>
</svg>
