<?xml version="1.0" encoding="utf-8"?>
<!-- Generator: Adobe Illustrator 24.0.1, SVG Export Plug-In . SVG Version: 6.00 Build 0)  -->
<svg version="1.1" id="Layer_1" xmlns="http://www.w3.org/2000/svg" xmlns:xlink="http://www.w3.org/1999/xlink" x="0px" y="0px"
	 viewBox="0 0 26.3 26.9" style="enable-background:new 0 0 26.3 26.9;" xml:space="preserve">
<style type="text/css">
	.st0{fill:url(#SVGID_1_);}
	.st1{fill:url(#SVGID_2_);}
</style>
<g>
	<linearGradient id="SVGID_1_" gradientUnits="userSpaceOnUse" x1="4.9926" y1="13.2688" x2="22.2576" y2="13.2688">
		<stop  offset="0" style="stop-color:#00FF84"/>
		<stop  offset="1" style="stop-color:#00C767"/>
	</linearGradient>
	<polygon class="st0" points="19.8,6.4 10.9,15.3 7.4,11.8 5,14.2 10.9,20.1 22.3,8.8 	"/>
	<g>
		<linearGradient id="SVGID_2_" gradientUnits="userSpaceOnUse" x1="-0.2199" y1="13.4655" x2="26.7801" y2="13.4655">
			<stop  offset="0" style="stop-color:#00FF84"/>
			<stop  offset="1" style="stop-color:#00C767"/>
		</linearGradient>
		<path class="st1" d="M26.3,13.5c0,3.4-1.2,6.9-3.6,9.4c-1.2,1.3-2.6,2.3-4.3,3c-1.6,0.7-3.4,1-5.1,1c-1.8,0-3.5-0.4-5.1-1.1
			c-1.6-0.7-3-1.7-4.2-3c-2.4-2.5-3.9-5.8-4-9.3C-0.1,10,1.3,6.5,3.8,4c2.5-2.5,6-4,9.5-4c3.5,0,7.1,1.5,9.4,4.1
			C25.1,6.7,26.3,10.1,26.3,13.5z M26.2,13.5c0-3.4-1.5-6.7-4-9c-2.4-2.3-5.7-3.5-9-3.5c-3.3,0-6.5,1.3-8.9,3.6
			C2.1,7,0.6,10.2,0.6,13.5c-0.1,3.3,1.2,6.7,3.7,9.1c2.4,2.4,5.8,3.6,9.1,3.5c3.3,0,6.5-1.4,9-3.6C24.7,20.2,26.3,16.9,26.2,13.5z"
			/>
	</g>
</g>
</svg>
