<?xml version="1.0" encoding="utf-8"?>
<!-- Generator: Adobe Illustrator 24.0.1, SVG Export Plug-In . SVG Version: 6.00 Build 0)  -->
<svg version="1.1" id="Layer_1" xmlns="http://www.w3.org/2000/svg" xmlns:xlink="http://www.w3.org/1999/xlink" x="0px" y="0px"
	 viewBox="0 0 33.9 33.3" style="enable-background:new 0 0 33.9 33.3;" xml:space="preserve">
<style type="text/css">
	.st0{fill:#B8B8B8;}
</style>
<g>
	<g>
		<g>
			<path class="st0" d="M2.3,31.8c-0.1,0-0.1,0-0.2-0.1C2,31.7,2,31.6,2.1,31.5l3-8.8c0,0,0-0.1,0.1-0.1L25.6,2.2
				c0.1-0.1,0.1-0.1,0.2-0.1l0,0c0.1,0,0.1,0,0.2,0.1l5.7,5.7c0.1,0.1,0.1,0.3,0,0.4L11.3,28.7c0,0-0.1,0.1-0.1,0.1L2.3,31.8
				C2.4,31.8,2.3,31.8,2.3,31.8z M5.6,22.9l-2.8,8.2l8.2-2.8L31.1,8.1l-5.3-5.3L5.6,22.9z"/>
		</g>
		<g>
			<path class="st0" d="M2.3,31.8c-0.1,0-0.1,0-0.2-0.1C2,31.7,2,31.6,2.1,31.5L2.9,29c0-0.1,0.1-0.1,0.2-0.2c0.1,0,0.2,0,0.2,0
				c0.3,0.2,0.7,0.5,1,0.8c0.3,0.3,0.6,0.6,0.8,1c0,0.1,0.1,0.2,0,0.2C5,30.9,5,30.9,4.9,31L2.3,31.8C2.4,31.8,2.3,31.8,2.3,31.8z
				 M3.3,29.5l-0.6,1.6l1.6-0.6c-0.1-0.2-0.3-0.4-0.5-0.6C3.7,29.8,3.5,29.6,3.3,29.5z"/>
		</g>
		<g>
			<path class="st0" d="M11.1,28.9c-0.1,0-0.2-0.1-0.3-0.2l-0.4-1.6L9.3,27C9.1,27,9,26.9,9,26.7L8.7,25H7.3C7.2,25,7,24.9,7,24.7
				v-1.4l-1.7-0.3c-0.2,0-0.3-0.2-0.2-0.3c0-0.2,0.2-0.3,0.3-0.2l2,0.3c0.1,0,0.2,0.1,0.2,0.3v1.4H9c0.1,0,0.3,0.1,0.3,0.2l0.3,1.7
				l1.2,0.1c0.1,0,0.2,0.1,0.2,0.2l0.5,1.8C11.5,28.7,11.4,28.8,11.1,28.9C11.2,28.9,11.2,28.9,11.1,28.9z"/>
		</g>
		<g>
			<path class="st0" d="M7.1,23.3c-0.1,0-0.1,0-0.2-0.1c-0.1-0.1-0.1-0.3,0-0.4L26.6,3.2c0.1-0.1,0.3-0.1,0.4,0
				c0.1,0.1,0.1,0.3,0,0.4L7.3,23.2C7.2,23.3,7.2,23.3,7.1,23.3z"/>
		</g>
		<g>
			<path class="st0" d="M8.8,25.2c-0.1,0-0.1,0-0.2-0.1c-0.1-0.1-0.1-0.3,0-0.4L28.2,4.9c0.1-0.1,0.3-0.1,0.4,0
				c0.1,0.1,0.1,0.3,0,0.4L9,25.1C8.9,25.1,8.8,25.2,8.8,25.2z"/>
		</g>
		<g>
			<path class="st0" d="M10.3,27.2c-0.1,0-0.1,0-0.2-0.1c-0.1-0.1-0.1-0.3,0-0.4l20-20c0.1-0.1,0.3-0.1,0.4,0c0.1,0.1,0.1,0.3,0,0.4
				l-20,20C10.5,27.2,10.4,27.2,10.3,27.2z"/>
		</g>
		<g>
			<path class="st0" d="M31.5,8.4c-0.1,0-0.1,0-0.2-0.1l-5.7-5.7c-0.1-0.1-0.1-0.3,0-0.4L27,0.7c0.4-0.4,1-0.7,1.7-0.7
				c0.6,0,1.2,0.2,1.7,0.7l2.8,2.8c0.9,0.9,0.9,2.4,0,3.4l-1.5,1.5C31.6,8.4,31.6,8.4,31.5,8.4z M26.1,2.4l5.3,5.3l1.3-1.3
				c0.7-0.7,0.7-1.9,0-2.6L30,1.1c-0.3-0.3-0.8-0.5-1.3-0.5c-0.5,0-0.9,0.2-1.3,0.5L26.1,2.4z"/>
		</g>
		<g>
			<path class="st0" d="M25.7,33.3H0.3C0.1,33.3,0,33.1,0,33c0-0.2,0.1-0.3,0.3-0.3h25.4c0.2,0,0.3,0.1,0.3,0.3
				C26,33.1,25.9,33.3,25.7,33.3z"/>
		</g>
	</g>
</g>
</svg>
