<?xml version="1.0" encoding="utf-8"?>
<!-- Generator: Adobe Illustrator 24.0.1, SVG Export Plug-In . SVG Version: 6.00 Build 0)  -->
<svg version="1.1" id="Layer_1" xmlns="http://www.w3.org/2000/svg" xmlns:xlink="http://www.w3.org/1999/xlink" x="0px" y="0px"
	 viewBox="0 0 26.3 26.9" style="enable-background:new 0 0 26.3 26.9;" xml:space="preserve">
<style type="text/css">
	.st0{fill:#B8B8B8;}
</style>
<g>
	<polygon class="st0" points="20.1,9.1 17.7,6.7 13.3,11 8.9,6.7 6.4,9.1 10.8,13.5 6.4,17.9 8.9,20.4 13.3,16 17.7,20.4 20.1,17.9 
		15.8,13.5 	"/>
	<g>
		<path class="st0" d="M26.3,13.5c0,3.4-1.2,6.9-3.6,9.4c-1.2,1.3-2.6,2.3-4.3,3c-1.6,0.7-3.4,1-5.1,1c-1.8,0-3.5-0.4-5.1-1.1
			c-1.6-0.7-3-1.7-4.2-3c-2.4-2.5-3.9-5.8-4-9.3C-0.1,10,1.3,6.5,3.8,4c2.5-2.5,6-4,9.5-4c3.5,0,7.1,1.5,9.4,4.1
			C25.1,6.7,26.3,10.1,26.3,13.5z M26.2,13.5c0-3.4-1.5-6.7-4-9c-2.4-2.3-5.7-3.5-9-3.5c-3.3,0-6.5,1.3-8.9,3.6
			C2.1,7,0.6,10.2,0.6,13.5c-0.1,3.3,1.2,6.7,3.7,9.1c2.4,2.4,5.8,3.6,9.1,3.5c3.3,0,6.5-1.4,9-3.6C24.7,20.2,26.3,16.9,26.2,13.5z"
			/>
	</g>
</g>
</svg>
