<?xml version="1.0" encoding="utf-8"?>
<!-- Generator: Adobe Illustrator 24.0.1, SVG Export Plug-In . SVG Version: 6.00 Build 0)  -->
<svg version="1.1" id="Layer_1" xmlns="http://www.w3.org/2000/svg" xmlns:xlink="http://www.w3.org/1999/xlink" x="0px" y="0px"
	 viewBox="0 0 18.4 18.1" style="enable-background:new 0 0 18.4 18.1;" xml:space="preserve">
<style type="text/css">
	.st0{fill:#FFFFFF;}
</style>
<g>
	<path class="st0" d="M1.9,12.1c-0.8-1.9-0.8-4.1,0-6c0.7-1.6,1.9-3,3.4-3.8v2.6h1.3V0.5H2.2v1.3h1.3C0.4,4.3-0.9,8.7,0.7,12.6
		c0.6,1.5,1.6,2.8,2.9,3.8c1.2,0.9,2.7,1.6,4.2,1.8L8,16.9C5.2,16.4,3,14.7,1.9,12.1z"/>
	<path class="st0" d="M17.7,12.6c0.9-2.3,0.9-4.8,0-7c-0.6-1.5-1.6-2.8-2.9-3.8c-1.2-0.9-2.7-1.6-4.2-1.8l-0.2,1.3
		c2.7,0.4,5,2.2,6.1,4.8c0.8,1.9,0.8,4.1,0,6c-0.7,1.6-1.9,3-3.4,3.8v-2.6h-1.3v4.3h4.3v-1.3h-1.3C16.1,15.3,17,14.1,17.7,12.6z"/>
	<path class="st0" d="M10.4,7.1h1.3c0-1.2-0.8-2.1-1.9-2.4V4.1H8.5v0.5C7.5,5,6.7,6,6.7,7.1c0,1.2,0.6,2,1.8,2.4l0.1,0v2.5
		C8.2,11.8,8,11.5,8,11H6.7c0,1.2,0.8,2.1,1.9,2.4V14h1.3v-0.5c1.1-0.3,1.9-1.3,1.9-2.4c0-1.2-0.6-2-1.8-2.4l-0.1,0V6.1
		C10.2,6.3,10.4,6.7,10.4,7.1z M8.5,8.2C8.1,8,8,7.6,8,7.1c0-0.4,0.2-0.8,0.6-1V8.2z M10.4,11c0,0.4-0.2,0.8-0.6,1V10
		C10.2,10.2,10.4,10.5,10.4,11z"/>
</g>
</svg>
