<?xml version="1.0" encoding="utf-8"?>
<!-- Generator: Adobe Illustrator 24.0.1, SVG Export Plug-In . SVG Version: 6.00 Build 0)  -->
<svg version="1.1" id="Layer_1" xmlns="http://www.w3.org/2000/svg" xmlns:xlink="http://www.w3.org/1999/xlink" x="0px" y="0px"
	 viewBox="0 0 34.5 27.9" style="enable-background:new 0 0 34.5 27.9;" xml:space="preserve">
<!-- <style type="text/css">
	.st0{fill:#00C767;}
</style> -->
<g>
	<path class="st0" d="M10.6,0c3.4,0,6.2,2.8,6.2,6.2s-2.8,6.2-6.2,6.2S4.5,9.6,4.5,6.2C4.5,2.8,7.2,0,10.6,0z"/>
	<path class="st0" d="M0,27.9c0.1-2.9,1.2-5.5,3.1-7.4c2-2,4.6-3.1,7.5-3.1c2.9,0,5.5,1.1,7.5,3.1c1.9,1.9,3,4.6,3.1,7.4H0z
		 M21.9,24.8c-0.5-1.6-1.3-3.1-2.4-4.4c1.4-2,3.6-3.4,6-3.6s4.9,0.6,6.6,2.4c1.4,1.5,2.3,3.5,2.4,5.6H21.9z"/>
	<path class="st0" d="M26.3,11.8c-2.3,0-4.3-1.7-4.7-4c0.3,0,0.6,0.1,1,0.1c0.5,0,1-0.1,1.5-0.2c1.1-0.2,2-0.8,2.8-1.5
		c0.3,0.4,0.6,0.7,0.9,1c0.9,0.8,2,1.3,3,1.3h0C30.2,10.4,28.4,11.8,26.3,11.8z M32.6,5.1c0.8,0,1.4,0.6,1.4,1.4s-0.6,1.4-1.4,1.4
		c-0.2,0-0.4,0-0.5-0.1v0c0-0.2,0-0.5,0-0.8c0-0.6-0.1-1.2-0.3-1.7C32.1,5.2,32.3,5.1,32.6,5.1z M30.7,5.3c0,0.1,0,0.1,0.1,0.2
		C30.9,6,31,6.5,31,7.1c0,0.1,0,0.2,0,0.2c-0.9,0.1-1.7-0.3-2.5-1c-0.3-0.3-0.7-0.7-0.9-1.1c0.5-0.7,0.9-1.4,1.2-2.2
		C29.7,3.6,30.3,4.4,30.7,5.3z M26.3,2.3c0.5,0,1.1,0.1,1.6,0.3c-1.8,4.4-5.1,4.2-6.3,4C21.8,4.2,23.8,2.3,26.3,2.3z"/>
</g>
</svg>
