<?xml version="1.0" encoding="utf-8"?>
<!-- Generator: Adobe Illustrator 24.0.1, SVG Export Plug-In . SVG Version: 6.00 Build 0)  -->
<svg version="1.1" id="Layer_1" xmlns="http://www.w3.org/2000/svg" xmlns:xlink="http://www.w3.org/1999/xlink" x="0px" y="0px"
	 viewBox="0 0 20.9 19.1" style="enable-background:new 0 0 20.9 19.1;" xml:space="preserve">
<style type="text/css">
	.st0{fill:#6E6E6E;}
</style>
<g>
	<g id="Layer_8_76_">
		<path class="st0" d="M20.9,6l-3.5-5.7C17.3,0.1,17.1,0,16.9,0H4.1C3.9,0,3.7,0.1,3.6,0.3L0.1,6c0,0,0,0,0,0c0,0,0,0.1-0.1,0.1
			c0,0,0,0,0,0c0,0,0,0.1,0,0.1c0,0,0,0,0,0c0,0,0,0,0,0c0,0,0,0.1,0,0.1c0,0,0,0,0,0c0,0,0,0.1,0.1,0.1c0,0,0,0,0,0L10,18.9l0,0
			c0,0,0,0,0,0c0,0,0.1,0.1,0.1,0.1c0,0,0,0,0,0c0,0,0,0,0,0c0,0,0.1,0.1,0.2,0.1c0,0,0.1,0,0.1,0c0,0,0,0,0,0c0,0,0,0,0,0l0,0l0,0
			c0,0,0,0,0,0c0.1,0,0.1,0,0.1,0c0,0,0,0,0,0c0,0,0,0,0,0c0,0,0,0,0,0c0,0,0,0,0,0c0,0,0,0,0,0c0,0,0,0,0.1,0c0,0,0,0,0,0
			c0,0,0,0,0,0c0,0,0,0,0.1-0.1c0,0,0,0,0,0l0,0l9.9-12.2C21,6.5,21,6.2,20.9,6z M11.7,1.1l1.8,4.6H7.4l1.8-4.6H11.7z M4.4,1.1H8
			L6.2,5.7H1.6L4.4,1.1z M1.8,6.9h4.4L9,15.8L1.8,6.9z M10.5,16.7L7.3,6.9h6.3L10.5,16.7z M12,15.8l2.9-8.9h4.3L12,15.8z M14.8,5.7
			l-1.8-4.6h3.6l2.8,4.6H14.8z"/>
	</g>
</g>
</svg>
