<?xml version="1.0" encoding="utf-8"?>
<!-- Generator: Adobe Illustrator 24.0.1, SVG Export Plug-In . SVG Version: 6.00 Build 0)  -->
<svg version="1.1" id="Layer_1" xmlns="http://www.w3.org/2000/svg" xmlns:xlink="http://www.w3.org/1999/xlink" x="0px" y="0px"
	 viewBox="0 0 16.6 17.9" style="enable-background:new 0 0 16.6 17.9;" xml:space="preserve">
<style type="text/css">
	.st0{fill:#6E6E6E;}
</style>
<g>
	<path class="st0" d="M15.8,16.2h-14V0.9C1.8,0.4,1.4,0,0.9,0S0,0.4,0,0.9V17c0,0.5,0.4,0.9,0.9,0.9h14.9c0.5,0,0.9-0.4,0.9-0.9
		S16.2,16.2,15.8,16.2z"/>
	<path class="st0" d="M4.8,12.6l2-2.2l3.2,4.3c0.2,0.2,0.4,0.4,0.7,0.4c0,0,0,0,0.1,0c0.3,0,0.6-0.2,0.7-0.5l5-9.1
		c0.2-0.4,0.1-1-0.3-1.2c-0.4-0.2-1-0.1-1.2,0.3l-4.4,7.9l-3-4C7.4,8.2,7.2,8.1,6.9,8.1c-0.3,0-0.5,0.1-0.7,0.3l-2.7,3
		c-0.3,0.4-0.3,0.9,0.1,1.3C3.9,12.9,4.5,12.9,4.8,12.6z"/>
</g>
</svg>
