<?xml version="1.0" encoding="utf-8"?>
<!-- Generator: Adobe Illustrator 24.0.1, SVG Export Plug-In . SVG Version: 6.00 Build 0)  -->
<svg version="1.1" id="Layer_1" xmlns="http://www.w3.org/2000/svg" xmlns:xlink="http://www.w3.org/1999/xlink" x="0px" y="0px"
	 viewBox="0 0 47 47" style="enable-background:new 0 0 47 47;" xml:space="preserve">
<style type="text/css">
	.st0{fill:#FFFFFF;}
	.st1{fill:#00FF84;}
</style>
<g>
	<g>
		<circle class="st0" cx="23.5" cy="23.5" r="23"/>
		<path class="st1" d="M23.5,47C10.5,47,0,36.5,0,23.5S10.5,0,23.5,0S47,10.5,47,23.5S36.5,47,23.5,47z M23.5,1
			C11.1,1,1,11.1,1,23.5S11.1,46,23.5,46S46,35.9,46,23.5S35.9,1,23.5,1z"/>
	</g>
	<g>
		<g>
			<path class="st1" d="M32.9,11h-10c0,0,0,0,0,0c-0.8,0-1.5,0.3-2.1,0.8c-0.6,0.5-0.9,1.3-0.9,2.1v2.7c0,0.4,0.3,0.7,0.7,0.7
				s0.7-0.3,0.7-0.7v-2.6c0-0.4,0.2-0.8,0.5-1.1c0.3-0.3,0.7-0.4,1.1-0.4c0,0,0,0,0,0h10c0,0,0,0,0,0c0.4,0,0.8,0.2,1,0.4
				c0.3,0.3,0.4,0.7,0.4,1.1v19.2c0,0.8-0.7,1.5-1.5,1.5h-10c0,0,0,0,0,0c-0.4,0-0.8-0.2-1.1-0.4c-0.3-0.3-0.5-0.7-0.5-1.1v-2.6
				c0-0.4-0.3-0.7-0.7-0.7S20,30.1,20,30.5v2.6c0,0.8,0.3,1.5,0.9,2.1c0.6,0.5,1.3,0.8,2.1,0.8h10c0,0,0,0,0,0c0.8,0,1.5-0.3,2-0.8
				c0.5-0.5,0.9-1.3,0.9-2V13.9C35.8,12.3,34.5,11,32.9,11z M32.9,11.2L32.9,11.2L32.9,11.2L32.9,11.2z"/>
		</g>
		<g>
			<path class="st1" d="M10.7,24.2h17.7c0.4,0,0.7-0.3,0.7-0.7s-0.3-0.7-0.7-0.7H10.6l3.9-4.5c0.3-0.3,0.2-0.7-0.1-1
				c-0.3-0.3-0.7-0.2-1,0.1l-4.8,5.5c-0.2,0.1-0.3,0.4-0.3,0.6c0,0.2,0.1,0.4,0.3,0.5l4.8,4.8c0.1,0.1,0.3,0.2,0.5,0.2
				s0.4-0.1,0.5-0.2c0.1-0.1,0.2-0.3,0.2-0.5s-0.1-0.4-0.2-0.5L10.7,24.2z"/>
		</g>
	</g>
</g>
</svg>
