<?xml version="1.0" encoding="utf-8"?>
<!-- Generator: Adobe Illustrator 24.0.1, SVG Export Plug-In . SVG Version: 6.00 Build 0)  -->
<svg version="1.1" id="Layer_1" xmlns="http://www.w3.org/2000/svg" xmlns:xlink="http://www.w3.org/1999/xlink" x="0px" y="0px"
	 viewBox="0 0 30.1 30" style="enable-background:new 0 0 30.1 30;" xml:space="preserve">
<style type="text/css">
	.st0{fill:#8400FF;}
</style>
<g>
	<g>
		<path class="st0" d="M15.7,1.4c0,1.4,0,2.7,0,4.1c0,0.5,0,1.1-0.7,1c-0.5,0-0.6-0.5-0.6-1c0-1.1,0-2.3,0-3.4c0-2.2,0-2.2,2.2-2
			C24.8,1.1,30.7,8.2,30,16.3c-0.7,8-7.6,14.2-15.7,13.7c-6-0.3-10.4-3.4-12.9-8.8C-1,15.7-0.3,10.5,3.3,5.7
			c0.2-0.3,0.5-0.6,0.8-0.9c0.3-0.3,0.6-0.3,0.9-0.1C5.2,5,5.3,5.3,5,5.7C4.8,5.9,4.6,6.2,4.3,6.5c-3.9,5-4,11.8-0.2,16.8
			c3.7,4.9,10.3,6.8,16,4.5c5.6-2.3,9.1-8.1,8.5-14C28.1,7.4,23.4,2.6,17,1.6C16.6,1.5,16.2,1.5,15.7,1.4z"/>
		<path class="st0" d="M17,15.1c0,0.7-0.4,1.3-1.2,1.7c-0.8,0.4-1.7,0.3-2.2-0.5c-1.6-2.2-3.1-4.5-4.7-6.8C8.9,9.4,8.8,9.2,8.9,9
			C9.2,8.7,9.4,8.9,9.7,9c2.2,1.5,4.4,3,6.6,4.5C16.7,13.8,17,14.4,17,15.1z"/>
	</g>
</g>
</svg>
