<?xml version="1.0" encoding="utf-8"?>
<!-- Generator: Adobe Illustrator 24.0.1, SVG Export Plug-In . SVG Version: 6.00 Build 0)  -->
<svg version="1.1" id="Layer_1" xmlns="http://www.w3.org/2000/svg" xmlns:xlink="http://www.w3.org/1999/xlink" x="0px" y="0px"
	 viewBox="0 0 32 31.9" style="enable-background:new 0 0 32 31.9;" xml:space="preserve">
<style type="text/css">
	.st0{fill:#00FF84;}
</style>
<g>
	<polygon class="st0" points="16,21.5 15.8,21.7 16.2,21.7 	"/>
	<polygon class="st0" points="16,31.3 17.2,30 16,23.4 16,23.4 14.8,30 	"/>
	<path class="st0" d="M14.3,31.9L13.4,31c-0.2-0.3-0.3-0.6-0.3-1l1.2-7.3l0,0c-0.1,0.1-0.3,0.1-0.5,0.1c-0.4,0-0.8-0.2-1-0.6
		l-1.2-2.3l-2.7,1c0,0-1.4,0.6-1.4,2.3l0,6.2c0,0.1,0,0.1,0,0.2C9.5,30.8,11.8,31.6,14.3,31.9z"/>
	<path class="st0" d="M16,16.1c1.5,0,2.7-1.2,2.7-2.7v-2.9c-0.1-0.1-0.2-0.2-0.4-0.4L18,9.8c-1.5,0.9-3.1,1.3-4.7,1.3c0,0,0,0,0,0
		v2.3C13.2,14.8,14.3,16.1,16,16.1z"/>
	<path class="st0" d="M14.8,17.7L14.8,17.7l1.2,1.5l1.2-1.5C16.4,17.9,15.6,17.9,14.8,17.7z"/>
	<path class="st0" d="M16,0C7.2,0,0,7.2,0,16c0,5,2.3,9.5,5.9,12.4l0-5.3c0-2.8,2.4-3.8,2.5-3.8l4.8-1.8v-0.6
		c-0.8-0.6-1.3-1.5-1.5-2.5c-0.4-0.1-0.7-0.2-1-0.5c-0.5-0.4-0.8-1-0.8-1.7c0-0.5,0.1-0.9,0.4-1.3V9.5c0-1.5,0.6-2.9,1.7-4
		c1.1-1.1,2.5-1.7,4-1.7c3.1,0,5.6,2.5,5.6,5.6v1.4c0.3,0.4,0.4,0.8,0.4,1.3c0,0.6-0.3,1.3-0.8,1.7c-0.3,0.2-0.6,0.4-1,0.5
		c-0.2,1-0.7,1.8-1.4,2.4v0.7l4.8,1.8l-0.2,0.4l0,0l0.2-0.4c0.1,0,2.5,1.1,2.5,3.8V26c0,0.5-0.4,0.8-0.8,0.9c-0.2,0-0.4-0.1-0.6-0.2
		c-0.2-0.2-0.3-0.4-0.3-0.6v-2.8c0-1.6-1.4-2.2-1.4-2.3l-2.6-1l-1.2,2.3c-0.2,0.4-0.6,0.6-1,0.6c-0.2,0-0.4,0-0.5-0.1l0,0l1.2,7.3
		c0,0.4-0.1,0.7-0.3,1l-0.9,0.9C25.7,31.1,32,24.3,32,16C32,7.2,24.8,0,16,0z"/>
	<polygon class="st0" points="13.3,19.2 14.1,20.9 14.8,20.3 13.7,19 	"/>
	<path class="st0" d="M18.9,8.4l0.5,0.6c0.2,0.2,0.3,0.4,0.4,0.5c0-2.2-1.8-3.9-4-3.9c-2.2,0-4,1.8-4,4v0.2c0.2-0.2,0.5-0.3,0.8-0.2
		c1.6,0.1,3.3-0.3,4.6-1.3C17.9,7.9,18.5,7.9,18.9,8.4z"/>
	<polygon class="st0" points="17.2,20.3 17.9,20.9 18.7,19.2 18.3,19 	"/>
</g>
</svg>
